<?xml version="1.0" standalone="no"?><!DOCTYPE svg PUBLIC "-//W3C//DTD SVG 1.1//EN" "http://www.w3.org/Graphics/SVG/1.1/DTD/svg11.dtd"><svg width="435.59375" height="435.59375" viewBox="0 0 312.5 312.5" class="css-1j8o68f" version="1.1" xmlns="http://www.w3.org/2000/svg" xmlns:xlink="http://www.w3.org/1999/xlink" style="block-size:435.594px;height:435.594px;inline-size:435.594px;perspective-origin:217.797px 217.797px;touch-action:none;transform-origin:217.797px 217.797px;width:435.594px;"><defs id="SvgjsDefs2281" style="block-size:auto;height:auto;inline-size:auto;overflow-x:visible;overflow-y:visible;perspective-origin:0px 0px;transform-origin:0px 0px;width:auto;"/><g id="SvgjsG2282" featurekey="rootContainer" transform="matrix(1.5585413392436143,0,0,1.5585413392436143,0,0)" fill="#111111" style="block-size:auto;fill:rgb(17, 17, 17);height:auto;inline-size:auto;overflow-x:visible;overflow-y:visible;perspective-origin:0px 0px;touch-action:none;transform:matrix(1.55854, 0, 0, 1.55854, 0, 0);transform-origin:0px 0px;user-select:none;width:auto;"><path xmlns="http://www.w3.org/2000/svg" d="M100.254 0C44.974 0 0 44.974 0 100.254s44.974 100.254 100.254 100.254c55.28 0 100.254-44.974 100.254-100.254S155.534 0 100.254 0zm0 195.508C47.731 195.508 5 152.777 5 100.254S47.731 5 100.254 5s95.254 42.73 95.254 95.254-42.731 95.254-95.254 95.254z" style="block-size:auto;d:path(&quot;M 100.254 0 C 44.974 0 0 44.974 0 100.254 S 44.974 200.508 100.254 200.508 C 155.534 200.508 200.508 155.534 200.508 100.254 S 155.534 0 100.254 0 Z M 100.254 195.508 C 47.731 195.508 5 152.777 5 100.254 S 47.731 5 100.254 5 S 195.508 47.73 195.508 100.254 S 152.777 195.508 100.254 195.508 Z&quot;);fill:rgb(17, 17, 17);height:auto;inline-size:auto;overflow-x:visible;overflow-y:visible;perspective-origin:0px 0px;transform-origin:0px 0px;user-select:none;width:auto;"/></g><g id="SvgjsG2283" featurekey="symbolFeature-0" transform="matrix(2.0603262235584108,0,0,2.0603262235584108,104.49184121810941,58.3118325400195)" fill="#111111" style="block-size:auto;fill:rgb(17, 17, 17);height:auto;inline-size:auto;overflow-x:visible;overflow-y:visible;perspective-origin:0px 0px;touch-action:none;transform:matrix(2.06033, 0, 0, 2.06033, 104.492, 58.3118);transform-origin:0px 0px;user-select:none;width:auto;"><path xmlns="http://www.w3.org/2000/svg" d="M17.422,36.759c-0.195,0-0.392-0.057-0.564-0.175L1.167,25.825C0.895,25.639,0.732,25.33,0.732,25s0.163-0.638,0.435-0.825  l15.69-10.759c0.457-0.312,1.078-0.196,1.39,0.259c0.313,0.456,0.196,1.078-0.259,1.39L3.5,25l14.488,9.934  c0.456,0.313,0.572,0.936,0.259,1.391C18.054,36.606,17.741,36.759,17.422,36.759z" style="block-size:auto;d:path(&quot;M 17.422 36.759 C 17.227 36.759 17.03 36.702 16.858 36.584 L 1.167 25.825 C 0.895 25.639 0.732 25.33 0.732 25 S 0.895 24.362 1.167 24.175 L 16.857 13.416 C 17.314 13.104 17.935 13.22 18.247 13.675 C 18.56 14.131 18.443 14.753 17.988 15.065 L 3.5 25 L 17.988 34.934 C 18.444 35.247 18.56 35.87 18.247 36.325 C 18.054 36.606 17.741 36.759 17.422 36.759 Z&quot;);fill:rgb(17, 17, 17);height:auto;inline-size:auto;overflow-x:visible;overflow-y:visible;perspective-origin:0px 0px;transform-origin:0px 0px;user-select:none;width:auto;"/><path xmlns="http://www.w3.org/2000/svg" d="M32.578,36.759c-0.318,0-0.632-0.151-0.826-0.435c-0.312-0.455-0.196-1.078,0.26-1.391L46.499,25l-14.487-9.934  c-0.456-0.313-0.571-0.935-0.26-1.39c0.313-0.455,0.935-0.572,1.391-0.259l15.69,10.759c0.272,0.187,0.435,0.495,0.435,0.825  s-0.162,0.639-0.435,0.825l-15.69,10.759C32.97,36.702,32.772,36.759,32.578,36.759z" style="block-size:auto;d:path(&quot;M 32.578 36.759 C 32.26 36.759 31.946 36.608 31.752 36.324 C 31.44 35.869 31.556 35.246 32.012 34.933 L 46.499 25 L 32.012 15.066 C 31.556 14.753 31.441 14.131 31.752 13.676 C 32.065 13.221 32.687 13.104 33.143 13.417 L 48.833 24.176 C 49.105 24.363 49.268 24.671 49.268 25.001 S 49.106 25.64 48.833 25.826 L 33.143 36.585 C 32.97 36.702 32.772 36.759 32.578 36.759 Z&quot;);fill:rgb(17, 17, 17);height:auto;inline-size:auto;overflow-x:visible;overflow-y:visible;perspective-origin:0px 0px;transform-origin:0px 0px;user-select:none;width:auto;"/><path xmlns="http://www.w3.org/2000/svg" d="M20.557,41.697c-0.173,0.525-0.738,0.811-1.263,0.638l0,0c-0.524-0.173-0.81-0.737-0.637-1.263l10.787-32.77  c0.173-0.525,0.738-0.81,1.263-0.637l0,0c0.524,0.173,0.81,0.738,0.638,1.263L20.557,41.697z" style="block-size:auto;d:path(&quot;M 20.557 41.697 C 20.384 42.222 19.819 42.508 19.294 42.335 L 19.294 42.335 C 18.77 42.162 18.484 41.598 18.657 41.072 L 29.444 8.302 C 29.617 7.777 30.182 7.492 30.707 7.665 L 30.707 7.665 C 31.231 7.838 31.517 8.403 31.345 8.928 L 20.557 41.697 Z&quot;);fill:rgb(17, 17, 17);height:auto;inline-size:auto;overflow-x:visible;overflow-y:visible;perspective-origin:0px 0px;transform-origin:0px 0px;user-select:none;width:auto;"/></g><g id="SvgjsG2284" featurekey="nameFeature-0" transform="matrix(1.2639827220721171,0,0,1.2639827220721171,55.99999969864304,156.74227643797417)" fill="#111111" style="block-size:auto;fill:rgb(17, 17, 17);height:auto;inline-size:auto;overflow-x:visible;overflow-y:visible;perspective-origin:0px 0px;touch-action:none;transform:matrix(1.26398, 0, 0, 1.26398, 56, 156.742);transform-origin:0px 0px;user-select:none;width:auto;"><path d="M6.6 12 l3.72 0 l6.6 28 l-3.88 0 l-2.32 -9.76 l-4.52 0 l-2.32 9.76 l-3.88 0 z M9.84 26.439999999999998 l-1.4 -5.8 l-1.36 5.8 l2.76 0 z M22.775000000000002 12 l0 24.2 l6.12 0 l0 3.8 l-9.88 0 l0 -28 l3.76 0 z M36.35 21.36 l1.08 0 q1.08 0 1.62 -0.88 t0.54 -1.92 t-0.52 -1.92 t-1.52 -0.88 l-1.2 0 l0 5.6 z M42.35 22.36 q0.92 0.68 1.56 1.7 t1.04 2.16 t0.58 2.36 t0.18 2.3 q0 1.48 -0.32 3.1 t-1.08 2.96 t-1.96 2.2 t-3 0.86 l-6.76 0 l0 -28 l4.96 0 q1.44 0 2.52 0.56 t1.8 1.48 t1.1 2.08 t0.38 2.4 q0 1 -0.24 1.98 t-0.76 1.86 z M39.35 25.16 l-3 0 l0 11.04 l3 0 q0.76 0 1.26 -0.6 t0.8 -1.46 t0.4 -1.76 t0.1 -1.5 q0 -0.56 -0.12 -1.52 t-0.42 -1.9 t-0.8 -1.62 t-1.22 -0.68 z M51.765 23.4 l4.16 0 l0 3.8 l-4.16 0 l0 9 l6.12 0 l0 3.8 l-9.88 0 l0 -28 l9.88 0 l0 3.8 l-6.12 0 l0 7.6 z M65.34 23.4 l4.16 0 l0 3.8 l-4.16 0 l0 9 l6.12 0 l0 3.8 l-9.88 0 l0 -28 l9.88 0 l0 3.8 l-6.12 0 l0 7.6 z M75.155 40 l0 -28 l6.52 0 q1.36 0 2.54 0.52 t2.08 1.4 t1.42 2.08 t0.52 2.56 l0 2.16 q0 1.32 -0.52 2.52 t-1.44 2.12 q0.92 0.92 1.44 2.12 t0.52 2.52 l0 10 l-3.8 0 l0 -10 q0 -1.12 -0.8 -1.94 t-1.96 -0.82 l-2.76 0 l0 12.76 l-3.76 0 z M78.915 15.8 l0 7.68 l2.76 0 q1.16 0 1.96 -0.82 t0.8 -1.94 l0 -2.16 q0 -1.16 -0.8 -1.96 t-1.96 -0.8 l-2.76 0 z M98.89000000000001 15.8 l0 24.2 l-3.8 0 l0 -24.2 l-4.6 0 l0 -3.8 l12.52 0 l0 3.8 l-4.12 0 z M106.70500000000001 40 l0 -28 l3.76 0 l0 28 l-3.76 0 z M122.56000000000002 15.8 l0 24.2 l-3.8 0 l0 -24.2 l-4.6 0 l0 -3.8 l12.52 0 l0 3.8 l-4.12 0 z M128.85500000000002 31.4 q-0.2 -1.28 -0.3 -2.6 t-0.1 -2.72 q0 -2.32 0.3 -4.62 t0.94 -4.34 q0.84 -2.64 2.28 -4.24 t3.56 -1.6 q1.36 0 2.44 0.72 t1.9 1.98 t1.4 2.94 t0.9 3.64 q0.2 1.28 0.32 2.7 t0.12 2.9 q0 2.36 -0.3 4.66 t-0.98 4.3 q-0.84 2.52 -2.3 4.06 t-3.5 1.54 q-0.12 0 -0.24 -0.02 t-0.24 -0.02 q-1.56 -0.16 -2.64 -1.16 t-1.8 -2.38 t-1.14 -2.92 t-0.62 -2.82 z M132.615 30.8 q0.16 1.16 0.42 2.2 t0.58 1.84 t0.7 1.32 t0.82 0.68 q0.24 0.08 0.36 0.08 q0.44 0 0.8 -0.36 t0.64 -0.84 t0.48 -0.98 t0.32 -0.82 q0.56 -1.68 0.82 -3.68 t0.26 -4.04 q0 -1.32 -0.1 -2.6 t-0.3 -2.44 q-0.2 -1.28 -0.5 -2.38 t-0.66 -1.92 t-0.8 -1.3 t-0.92 -0.48 q-0.64 0 -1.2 0.9 t-1 2.3 q-0.56 1.72 -0.82 3.74 t-0.26 4.06 q0 2.56 0.36 4.72 z M145.91 12 l12.32 0 l0 2.76 l-8.32 25.24 l-4 0 q1.96 -6.04 3.98 -12.12 t3.98 -12.08 l-7.96 0 l0 -3.8 z" style="block-size:auto;d:path(&quot;M 6.6 12 L 10.32 12 L 16.92 40 L 13.04 40 L 10.72 30.24 L 6.2 30.24 L 3.88 40 L 2.38419e-7 40 Z M 9.84 26.44 L 8.44 20.64 L 7.08 26.44 L 9.84 26.44 Z M 22.775 12 L 22.775 36.2 L 28.895 36.2 L 28.895 40 L 19.015 40 L 19.015 12 L 22.775 12 Z M 36.35 21.36 L 37.43 21.36 Q 38.51 21.36 39.05 20.48 T 39.59 18.56 T 39.07 16.64 T 37.55 15.76 L 36.35 15.76 L 36.35 21.36 Z M 42.35 22.36 Q 43.27 23.04 43.91 24.06 T 44.95 26.22 T 45.53 28.58 T 45.71 30.88 Q 45.71 32.36 45.39 33.98 T 44.31 36.94 T 42.35 39.14 T 39.35 40 L 32.59 40 L 32.59 12 L 37.55 12 Q 38.99 12 40.07 12.56 T 41.87 14.04 T 42.97 16.12 T 43.35 18.52 Q 43.35 19.52 43.11 20.5 T 42.35 22.36 Z M 39.35 25.16 L 36.35 25.16 L 36.35 36.2 L 39.35 36.2 Q 40.11 36.2 40.61 35.6 T 41.41 34.14 T 41.81 32.38 T 41.91 30.88 Q 41.91 30.32 41.79 29.36 T 41.37 27.46 T 40.57 25.84 T 39.35 25.16 Z M 51.765 23.4 L 55.925 23.4 L 55.925 27.2 L 51.765 27.2 L 51.765 36.2 L 57.885 36.2 L 57.885 40 L 48.005 40 L 48.005 12 L 57.885 12 L 57.885 15.8 L 51.765 15.8 L 51.765 23.4 Z M 65.34 23.4 L 69.5 23.4 L 69.5 27.2 L 65.34 27.2 L 65.34 36.2 L 71.46 36.2 L 71.46 40 L 61.58 40 L 61.58 12 L 71.46 12 L 71.46 15.8 L 65.34 15.8 L 65.34 23.4 Z M 75.155 40 L 75.155 12 L 81.675 12 Q 83.035 12 84.215 12.52 T 86.295 13.92 T 87.715 16 T 88.235 18.56 L 88.235 20.72 Q 88.235 22.04 87.715 23.24 T 86.275 25.36 Q 87.195 26.28 87.715 27.48 T 88.235 30 L 88.235 40 L 84.435 40 L 84.435 30 Q 84.435 28.88 83.635 28.06 T 81.675 27.24 L 78.915 27.24 L 78.915 40 L 75.155 40 Z M 78.915 15.8 L 78.915 23.48 L 81.675 23.48 Q 82.835 23.48 83.635 22.66 T 84.435 20.72 L 84.435 18.56 Q 84.435 17.4 83.635 16.6 T 81.675 15.8 L 78.915 15.8 Z M 98.89 15.8 L 98.89 40 L 95.09 40 L 95.09 15.8 L 90.49 15.8 L 90.49 12 L 103.01 12 L 103.01 15.8 L 98.89 15.8 Z M 106.705 40 L 106.705 12 L 110.465 12 L 110.465 40 L 106.705 40 Z M 122.56 15.8 L 122.56 40 L 118.76 40 L 118.76 15.8 L 114.16 15.8 L 114.16 12 L 126.68 12 L 126.68 15.8 L 122.56 15.8 Z M 128.855 31.4 Q 128.655 30.12 128.555 28.8 T 128.455 26.08 Q 128.455 23.76 128.755 21.46 T 129.695 17.12 Q 130.535 14.48 131.975 12.88 T 135.535 11.28 Q 136.895 11.28 137.975 12 T 139.875 13.98 T 141.275 16.92 T 142.175 20.56 Q 142.375 21.84 142.495 23.26 T 142.615 26.16 Q 142.615 28.52 142.315 30.82 T 141.335 35.12 Q 140.495 37.64 139.035 39.18 T 135.535 40.72 Q 135.415 40.72 135.295 40.7 T 135.055 40.68 Q 133.495 40.52 132.415 39.52 T 130.615 37.14 T 129.475 34.22 T 128.855 31.4 Z M 132.615 30.8 Q 132.775 31.96 133.035 33 T 133.615 34.84 T 134.315 36.16 T 135.135 36.84 Q 135.375 36.92 135.495 36.92 Q 135.935 36.92 136.295 36.56 T 136.935 35.72 T 137.415 34.74 T 137.735 33.92 Q 138.295 32.24 138.555 30.24 T 138.815 26.2 Q 138.815 24.88 138.715 23.6 T 138.415 21.16 Q 138.215 19.88 137.915 18.78 T 137.255 16.86 T 136.455 15.56 T 135.535 15.08 Q 134.895 15.08 134.335 15.98 T 133.335 18.28 Q 132.775 20 132.515 22.02 T 132.255 26.08 Q 132.255 28.64 132.615 30.8 Z M 145.91 12 L 158.23 12 L 158.23 14.76 L 149.91 40 L 145.91 40 Q 147.87 33.96 149.89 27.88 T 153.87 15.8 L 145.91 15.8 L 145.91 12 Z&quot;);fill:rgb(17, 17, 17);height:auto;inline-size:auto;overflow-x:visible;overflow-y:visible;perspective-origin:0px 0px;transform-origin:0px 0px;user-select:none;width:auto;"/></g><g id="SvgjsG2285" featurekey="sloganFeature-0" transform="matrix(1.1113833222898175,0,0,1.1113833222898175,86.95809522090471,211.43973226220209)" fill="#111111" style="block-size:auto;fill:rgb(17, 17, 17);height:auto;inline-size:auto;overflow-x:visible;overflow-y:visible;perspective-origin:0px 0px;touch-action:none;transform:matrix(1.11138, 0, 0, 1.11138, 86.9581, 211.44);transform-origin:0px 0px;user-select:none;width:auto;"><path d="M7.54 11.14 c0.1 0.48 0 0.64 -0.48 0.78 c-0.4 0.1 -0.78 0.08 -1.16 -0.02 c-0.34 -0.08 -0.58 -0.28 -0.68 -0.62 c-0.08 -0.24 -0.14 -0.48 -0.2 -0.72 c-0.16 -0.68 -0.32 -1.36 -0.5 -2.02 c-0.06 -0.26 -0.16 -0.52 -0.26 -0.78 c-0.04 -0.1 -0.12 -0.2 -0.2 -0.36 c-0.36 0.28 -0.56 0.6 -0.68 0.96 c-0.26 0.82 -0.4 1.66 -0.28 2.52 c0.08 0.48 0.2 0.96 0.32 1.42 c0.26 0.92 0.74 1.74 1.42 2.42 c0.18 0.18 0.38 0.34 0.54 0.54 c0.26 0.32 0.56 0.64 0.78 1 c0.56 0.88 0.42 1.82 -0.32 2.54 c-0.46 0.44 -1 0.76 -1.6 0.96 c-0.94 0.3 -1.86 0.28 -2.78 -0.04 c-0.3 -0.12 -0.6 -0.28 -0.84 -0.48 c-0.58 -0.44 -0.74 -1.16 -0.42 -1.82 c0.4 -0.86 1.52 -1.32 2.42 -0.98 c0.06 0.02 0.12 0.06 0.18 0.1 c0.16 0.1 0.2 0.26 0.06 0.4 c-0.08 0.08 -0.2 0.16 -0.28 0.26 c-0.26 0.28 -0.42 0.62 -0.38 1.02 c0.02 0.28 0.14 0.5 0.38 0.66 c0.2 0.14 0.4 0.16 0.6 0.02 c0.18 -0.12 0.36 -0.24 0.52 -0.38 c0.42 -0.44 0.5 -0.98 0.22 -1.54 c-0.08 -0.16 -0.16 -0.32 -0.28 -0.44 c-0.22 -0.28 -0.44 -0.52 -0.68 -0.76 c-0.16 -0.2 -0.36 -0.36 -0.54 -0.54 c-0.78 -0.76 -1.3 -1.68 -1.58 -2.74 c-0.34 -1.28 -0.4 -2.54 -0.06 -3.82 c0.42 -1.66 1.74 -2.44 3.06 -2.54 c0.36 -0.04 0.72 -0.02 1.08 0.04 c0.84 0.12 1.42 0.62 1.78 1.38 c0.22 0.44 0.34 0.9 0.42 1.38 c0.14 0.72 0.28 1.46 0.42 2.2 z M2.06 7.4399999999999995 c0.02 -0.04 0 -0.12 0 -0.24 c-0.1 0.06 -0.18 0.08 -0.22 0.14 c-0.38 0.52 -0.68 1.06 -0.84 1.7 c-0.16 0.66 -0.08 1.34 -0.04 2 c0.04 -0.28 0.04 -0.58 0.06 -0.86 c0.02 -0.78 0.22 -1.5 0.66 -2.16 c0.12 -0.18 0.26 -0.38 0.38 -0.58 z M2.1 16.82 c0.1 0 0.02 -0.2 -0.08 -0.2 c-0.14 0 -0.28 0.02 -0.42 0.06 c-0.08 -0.02 -0.12 0 -0.16 0.04 c-0.32 0.1 -0.62 0.3 -0.88 0.56 c-0.06 0.06 0.08 0.24 0.14 0.18 c0.38 -0.4 0.86 -0.62 1.4 -0.64 z M5.16 15.52 c-0.08 -0.1 -0.22 0 -0.12 0.1 c0.2 0.26 0.42 0.52 0.6 0.78 c0.02 0.02 0.02 0.04 0.04 0.08 l0 0 l0.02 0 c0.18 0.32 0.24 0.68 0.28 1.04 c0.02 0.12 0.2 0.2 0.2 0.06 c-0.04 -0.36 -0.1 -0.72 -0.26 -1.04 c-0.2 -0.38 -0.5 -0.7 -0.76 -1.02 z M6.36 7.699999999999999 c0 0.04 -0.02 0.06 -0.02 0.1 l0.02 0 l0 -0.1 z M7.1 10.44 c0 -0.06 0.04 -0.14 0.02 -0.2 c-0.14 -0.78 -0.3 -1.54 -0.58 -2.26 c-0.02 0.1 -0.02 0.2 0 0.3 c0.12 0.64 0.24 1.28 0.38 1.94 c0.02 0.1 0.02 0.2 0.18 0.22 z M10.959999999999999 12.86 c-0.06 1.54 -0.12 3.1 -0.2 4.64 c-0.02 0.7 -0.1 1.4 -0.14 2.1 c0 0.28 -0.14 0.46 -0.4 0.54 c-0.44 0.14 -0.88 0.14 -1.32 -0.02 c-0.24 -0.08 -0.36 -0.24 -0.4 -0.5 c-0.08 -0.86 -0.16 -1.72 -0.16 -2.58 c0.02 -1.34 0.04 -2.66 0.08 -4 c0.02 -0.74 0.06 -1.48 0.1 -2.2 c0.06 -1 0.12 -2 0.2 -3 c0 -0.18 0.04 -0.36 0.06 -0.52 c0.04 -0.28 0.2 -0.46 0.46 -0.54 c0.46 -0.14 0.92 -0.14 1.38 0.04 c0.24 0.08 0.38 0.26 0.38 0.52 c0.02 0.22 0.04 0.42 0.04 0.64 c-0.02 1.62 -0.06 3.12 -0.08 4.76 l0 0.12 z M8.799999999999999 18.18 c0.02 -0.12 0.04 -0.16 0.04 -0.22 c0.1 -0.96 0.08 -1.92 0.08 -2.9 c-0.02 -1.72 0.16 -3.46 0.32 -5.18 c0.04 -0.58 0.12 -1.16 0.18 -1.76 c0.02 -0.08 0 -0.18 -0.12 -0.2 c-0.04 0.04 -0.1 0.08 -0.1 0.12 c-0.44 3.36 -0.7 6.72 -0.4 10.14 z M23.2 16.02 c0.06 0.18 -0.22 0.4 -0.58 0.48 c-0.32 0.08 -0.64 0.12 -0.96 0.16 c-0.72 0.08 -1.46 0.14 -2.18 0.22 c-0.46 0.06 -0.92 0.02 -1.36 -0.08 c-0.76 -0.16 -1.1 -0.56 -1.18 -1.32 c-0.08 -0.74 -0.06 -1.46 0.04 -2.2 c0.14 -0.9 0.28 -1.82 0.4 -2.72 c0.1 -0.92 0.16 -1.82 0.22 -2.74 c0.08 -0.98 0.1 -1.06 1.1 -1.26 c1.12 -0.24 2.26 -0.34 3.4 -0.08 c0.32 0.06 0.64 0.14 0.9 0.34 c0.22 0.2 0.2 0.48 -0.08 0.62 c-0.14 0.06 -0.3 0.12 -0.44 0.12 c-0.38 0 -0.74 0 -1.1 -0.06 c-0.4 -0.08 -0.78 -0.1 -1.16 -0.04 c-0.36 0.04 -0.46 0.18 -0.48 0.54 c-0.06 0.82 -0.1 1.66 -0.18 2.48 c-0.06 0.6 -0.14 1.22 -0.22 1.84 c-0.02 0.1 -0.02 0.22 -0.04 0.42 c0.26 0.02 0.44 0.06 0.62 0.06 c0.24 0 0.5 -0.02 0.76 0 c0.12 0 0.26 0.02 0.4 0.08 s0.3 0.16 0.26 0.34 c-0.02 0.12 -0.1 0.28 -0.22 0.32 c-0.22 0.12 -0.46 0.22 -0.7 0.24 c-0.38 0.04 -0.78 0 -1.12 0 c-0.24 0.18 -0.2 0.42 -0.2 0.6 c0.02 0.48 -0.06 0.96 0.18 1.44 c0.18 0 0.36 0.02 0.54 0 c0.6 -0.06 1.18 -0.14 1.78 -0.2 c0.32 -0.04 0.64 -0.06 0.96 -0.02 c0.26 0.04 0.56 0.1 0.64 0.42 z M21.439999999999998 6.66 c-0.1 0 -0.18 0.02 -0.28 0.02 l0 0.06 l0.02 0 c-0.04 0.02 -0.04 0.12 0.04 0.12 c0.18 0 0.34 0 0.5 0.02 c0.06 0.02 0.14 0.06 0.2 0.08 l0.02 0 l-0.02 0 l0 -0.06 c0.06 0.02 0.1 0.02 0.14 0.04 l-0.04 0 c0.04 0 0.08 0.02 0.12 0.02 c0.1 0.02 0.2 0.06 0.3 0.12 c0.08 0.06 0.14 -0.08 0.06 -0.12 c-0.02 -0.02 -0.06 -0.02 -0.08 -0.04 l0.06 -0.06 c-0.04 0.02 -0.08 0.02 -0.12 0.02 c-0.22 -0.08 -0.46 -0.12 -0.7 -0.14 c-0.06 -0.02 -0.14 -0.06 -0.2 -0.08 c0 0.02 0.02 0.04 0.02 0.06 l-0.24 0 c0.06 -0.02 0.14 -0.04 0.22 -0.06 l-0.02 0 z M17.68 13.66 c0.02 -0.04 0.02 -0.1 0.02 -0.16 l0 -0.16 c0.02 -0.18 -0.26 -0.18 -0.28 0 c-0.02 0.22 -0.04 0.42 -0.06 0.62 c-0.02 0.18 0.28 0.18 0.3 0 c0 -0.1 0.02 -0.2 0.02 -0.3 z M18.1 9.38 c0.06 -0.52 0.1 -1.06 0.16 -1.58 c0.02 -0.18 -0.26 -0.18 -0.28 0 c-0.18 1.62 -0.36 3.26 -0.52 4.88 c-0.02 0.18 0.26 0.18 0.28 0 c0 -0.06 0.02 -0.14 0.02 -0.2 c0.08 -0.1 0.08 -0.24 0.08 -0.34 c0.06 -0.46 0.1 -0.92 0.14 -1.36 c0.04 -0.48 0.08 -0.94 0.12 -1.4 z M22.34 16 c0.1 0.02 0.14 -0.12 0.04 -0.14 c-0.32 -0.06 -0.62 -0.06 -0.92 0.04 c-0.08 0.04 -0.06 0.16 0.04 0.14 c0.28 -0.08 0.56 -0.1 0.84 -0.04 z M22.58 18.34 c0.4 0.2 0.4 0.56 0.02 0.8 c-0.22 0.12 -0.46 0.22 -0.7 0.26 c-0.32 0.08 -0.64 0.12 -0.96 0.16 c-1.32 0.12 -2.64 0.26 -3.96 0.36 c-0.92 0.08 -1.84 0.16 -2.76 0.06 c-0.38 -0.04 -0.76 -0.14 -1.12 -0.26 c-0.68 -0.26 -0.9 -0.6 -0.88 -1.32 c0 -0.38 0.02 -0.78 0.08 -1.16 c0.3 -2.56 0.62 -5.1 0.94 -7.66 c0.1 -0.86 0.26 -1.72 0.38 -2.58 c0.08 -0.62 0.44 -0.94 1.02 -1.04 c0.52 -0.08 1.04 -0.1 1.56 0.1 c0.38 0.16 0.5 0.3 0.48 0.72 c-0.06 1.38 -0.12 2.76 -0.22 4.14 c-0.08 1.18 -0.22 2.36 -0.34 3.56 c-0.12 1.08 -0.24 2.18 -0.34 3.28 c-0.02 0.2 -0.04 0.4 -0.04 0.66 c0.24 0 0.36 0.02 0.5 0 c1.32 -0.08 2.62 -0.16 3.92 -0.26 c0.26 0 0.5 -0.04 0.76 -0.06 c0.44 -0.06 0.86 -0.06 1.28 0.08 c0.14 0.04 0.28 0.08 0.38 0.16 z M13.04 16.64 c0.02 -0.22 0.06 -0.44 0.1 -0.66 c0.04 -0.18 -0.24 -0.26 -0.28 -0.08 c-0.02 0.22 -0.06 0.44 -0.1 0.66 c-0.04 0.18 0.24 0.26 0.28 0.08 z M14.28 7.18 c0.04 -0.18 -0.22 -0.26 -0.28 -0.08 c-0.34 1.22 -0.42 2.56 -0.58 3.84 c-0.08 0.68 -0.16 1.36 -0.24 2.06 c-0.06 0.7 -0.04 1.46 -0.22 2.16 c-0.04 0.18 0.24 0.26 0.28 0.08 c0.3 -1.2 0.26 -2.54 0.4 -3.76 c0.16 -1.42 0.26 -2.92 0.64 -4.3 z M21.86 18.6 c0.08 0 0.08 -0.14 0 -0.16 c-0.66 -0.06 -1.28 0.02 -1.9 0.2 c-0.04 0 -0.04 0.02 -0.06 0.02 c-0.02 0.02 -0.04 0.02 -0.06 0.02 c0.02 0.02 0.04 0.02 0.06 0.02 c0 0.04 0.04 0.08 0.08 0.06 l0.3 -0.06 c0.4 -0.02 0.8 -0.06 1.22 -0.12 c0.12 0 0.24 0 0.36 0.02 z M32.46 6.92 c0.04 1.34 -0.2 2.66 -0.36 4 c-0.16 1.32 -0.36 2.62 -0.58 3.92 c-0.18 1.1 -0.4 2.2 -0.62 3.28 c-0.02 0.18 -0.08 0.34 -0.12 0.52 c-0.18 0.6 -0.44 0.8 -1.06 0.84 c-0.16 0.02 -0.32 0.02 -0.46 0 c-0.46 -0.04 -0.78 -0.26 -0.94 -0.72 c-0.4 -1.1 -0.8 -2.2 -1.1 -3.34 c-0.14 -0.52 -0.3 -1.02 -0.46 -1.54 l-0.12 0 l0 0.38 c0 0.88 0.02 1.74 0 2.6 c0 0.64 -0.06 1.26 -0.08 1.9 c-0.02 0.26 -0.14 0.42 -0.38 0.52 c-0.46 0.16 -0.9 0.16 -1.36 -0.02 c-0.24 -0.08 -0.36 -0.24 -0.38 -0.5 c-0.04 -0.78 -0.14 -1.54 -0.18 -2.3 c-0.14 -1.9 -0.26 -3.8 -0.22 -5.7 c0.02 -1.12 0.12 -2.26 0.18 -3.4 c0.02 -0.06 0.02 -0.14 0.04 -0.22 c0.04 -0.26 0.18 -0.42 0.42 -0.5 c0.44 -0.12 0.88 -0.12 1.3 0.02 c0.16 0.06 0.28 0.14 0.42 0.2 c0.18 0.08 0.26 0.22 0.32 0.38 l0.84 2.64 c0.5 1.62 1 3.22 1.5 4.84 c0.02 0.08 0.06 0.16 0.1 0.24 c0.14 0.02 0.12 -0.1 0.12 -0.16 c0.26 -2 0.52 -4 0.76 -6 c0.04 -0.32 0.06 -0.64 0.08 -0.96 c0.02 -0.36 0.12 -0.68 0.26 -1 c0.1 -0.18 0.22 -0.32 0.42 -0.38 c0.46 -0.16 0.94 -0.18 1.4 0.02 c0.24 0.08 0.26 0.18 0.26 0.44 z M24.9 9.68 c0 -0.46 0.1 -0.94 0 -1.44 c-0.08 0.06 -0.14 0.08 -0.16 0.12 c-0.04 0.1 -0.04 0.18 -0.06 0.28 c-0.06 1.38 -0.14 2.76 -0.18 4.14 c-0.04 1.32 0.08 2.64 0.28 3.96 l0 -1.42 c0 -0.46 -0.02 -0.92 -0.02 -1.38 c0 -0.48 0.02 -0.96 0.02 -1.44 c0.02 -0.48 0.02 -0.96 0.04 -1.44 c0.02 -0.46 0.08 -0.92 0.08 -1.38 z M28.32 14.18 c0.12 0.36 0.22 0.1 0.22 0.08 c-0.08 -0.28 -0.18 -0.62 -0.28 -0.98 l0 -0.02 c-0.02 -0.04 -0.04 -0.06 -0.04 -0.1 c-0.32 -1.08 -0.72 -2.4 -1 -3.22 c-0.02 -0.06 -0.06 0 -0.06 0.02 c0.06 1.08 0.82 3.1 1.16 4.22 z M30.759999999999998 8.48 c0.02 -0.1 0.04 -0.22 -0.12 -0.26 c-0.04 0.02 -0.08 0.04 -0.08 0.06 c-0.18 1.04 -0.38 2.08 -0.52 3.12 c-0.08 0.6 -0.18 1.2 -0.14 1.84 c0.04 -0.06 0.06 -0.08 0.08 -0.12 c0.18 -1.1 0.38 -2.22 0.56 -3.32 c0.08 -0.44 0.16 -0.88 0.22 -1.32 z M41.62 15.719999999999999 c0.2 0.12 0.22 0.26 0.12 0.48 c-0.02 0.02 -0.02 0.04 -0.02 0.06 c-0.62 0.84 -1.2 1.74 -1.98 2.44 c-1.2 1.08 -2.6 1.2 -4.06 0.66 c-0.42 -0.14 -0.76 -0.42 -1.04 -0.76 c-0.5 -0.54 -0.82 -1.2 -1.04 -1.92 c-0.16 -0.5 -0.24 -1.02 -0.28 -1.54 c-0.06 -1.44 0.06 -2.86 0.5 -4.24 c0.28 -0.88 0.68 -1.7 1.26 -2.44 c1.28 -1.56 3.14 -1.68 4.54 -1.16 c0.58 0.2 1.06 0.56 1.46 1.04 c0.24 0.32 0.4 0.68 0.48 1.08 c0.06 0.36 -0.08 0.62 -0.44 0.74 c-0.42 0.14 -0.86 0.14 -1.28 0 c-0.2 -0.06 -0.36 -0.2 -0.44 -0.4 c-0.08 -0.14 -0.14 -0.28 -0.22 -0.4 c-0.24 -0.38 -0.52 -0.72 -0.98 -0.98 c-0.3 0.2 -0.52 0.46 -0.72 0.74 c-0.54 0.76 -0.86 1.62 -1.06 2.52 c-0.32 1.38 -0.42 2.76 -0.24 4.16 c0.08 0.58 0.22 1.14 0.46 1.68 c0.16 0.34 0.34 0.66 0.64 0.94 c0.12 -0.04 0.24 -0.08 0.32 -0.18 c0.36 -0.3 0.7 -0.62 1.02 -0.96 c0.38 -0.4 0.76 -0.8 1.04 -1.26 c0.36 -0.54 1.44 -0.62 1.96 -0.3 z M34.22 16.740000000000002 c0.14 0.32 0.16 -0.06 0.1 -0.26 c-0.02 -0.1 -0.06 -0.2 -0.1 -0.32 l0 -0.02 l-0.02 0 c-0.02 -0.1 -0.06 -0.18 -0.06 -0.26 c0 0 -0.06 0.52 0.08 0.86 z M35.36 9.28 c0.02 -0.08 0.02 -0.18 -0.06 -0.18 c-0.06 -0.02 -0.12 0.04 -0.18 0.08 c-0.02 0.04 -0.04 0.08 -0.06 0.1 c-0.96 2.02 -1.34 4.14 -0.9 6.36 l0 -1.02 c-0.02 -1.78 0.32 -3.48 1.08 -5.08 c0.04 -0.1 0.08 -0.18 0.12 -0.26 z M45.44 7.199999999999999 c-0.02 0.1 -0.04 0.16 -0.04 0.24 c0 2.56 0 5.1 0.02 7.66 c0 0.04 0.04 0.1 0.06 0.18 c0.32 -0.02 0.64 -0.08 0.96 -0.12 s0.66 -0.06 1 -0.06 c0.16 0 0.34 0.08 0.48 0.16 c0.2 0.1 0.2 0.32 0 0.44 c-0.2 0.1 -0.42 0.16 -0.64 0.2 c-0.42 0.1 -0.86 0.16 -1.28 0.24 c-0.18 0.04 -0.34 0.08 -0.52 0.14 c-0.02 0.72 0.02 1.44 0.14 2.14 c0.02 0.08 0.06 0.16 0.08 0.22 c0.08 0.24 0.24 0.38 0.5 0.4 c0.28 0 0.56 0.02 0.84 0 c0.52 -0.04 1.02 -0.08 1.52 -0.12 c0.24 -0.02 0.46 0 0.68 0.02 c0.1 0 0.2 0.04 0.28 0.06 c0.22 0.06 0.36 0.22 0.34 0.34 c-0.02 0.16 -0.16 0.24 -0.3 0.3 c-0.16 0.04 -0.34 0.1 -0.5 0.12 c-0.78 0.06 -1.54 0.14 -2.32 0.2 c-0.54 0.04 -1.1 0 -1.64 -0.1 c-0.24 -0.04 -0.48 -0.12 -0.7 -0.2 c-0.4 -0.18 -0.7 -0.48 -0.84 -0.88 c-0.1 -0.3 -0.2 -0.62 -0.24 -0.94 c-0.08 -0.98 -0.16 -1.96 -0.22 -2.94 c-0.1 -1.5 -0.06 -3.02 -0.02 -4.54 c0.02 -0.8 0.06 -1.62 0.1 -2.44 c0 -0.2 0.02 -0.4 0.02 -0.62 c-0.16 -0.1 -0.3 -0.18 -0.44 -0.28 c-0.12 -0.1 -0.14 -0.3 0.02 -0.38 c0.14 -0.1 0.32 -0.2 0.5 -0.24 c0.4 -0.1 0.82 -0.18 1.22 -0.22 c1.26 -0.1 2.54 -0.14 3.8 0.08 c0.22 0.04 0.44 0.12 0.62 0.22 c0.24 0.12 0.22 0.38 -0.02 0.48 c-0.18 0.1 -0.42 0.18 -0.64 0.2 c-0.3 0.04 -0.6 0 -0.9 0 l-1.58 0 c-0.12 0 -0.22 0.02 -0.34 0.04 z M43.58 7.619999999999999 c-0.18 0.38 -0.2 0.68 -0.26 3.2 c-0.02 1.06 -0.02 2.12 0 3.18 c0.04 1.06 0.1 2.12 0.3 3.16 c0.02 -0.3 0.02 -0.6 0.02 -0.9 c-0.02 -1.42 -0.1 -2.84 -0.08 -4.24 c0.02 -1.34 0.1 -2.68 0.16 -4.02 c0 -0.1 0 -0.2 -0.02 -0.28 c0 -0.04 -0.08 -0.06 -0.12 -0.1 z M58.279999999999994 12.86 c-0.06 1.54 -0.12 3.1 -0.2 4.64 c-0.02 0.7 -0.1 1.4 -0.14 2.1 c0 0.28 -0.14 0.46 -0.4 0.54 c-0.44 0.14 -0.88 0.14 -1.32 -0.02 c-0.24 -0.08 -0.36 -0.24 -0.4 -0.5 c-0.08 -0.86 -0.16 -1.72 -0.16 -2.58 c0.02 -1.34 0.04 -2.66 0.08 -4 c0.02 -0.74 0.06 -1.48 0.1 -2.2 c0.06 -1 0.12 -2 0.2 -3 c0 -0.18 0.04 -0.36 0.06 -0.52 c0.04 -0.28 0.2 -0.46 0.46 -0.54 c0.46 -0.14 0.92 -0.14 1.38 0.04 c0.24 0.08 0.38 0.26 0.38 0.52 c0.02 0.22 0.04 0.42 0.04 0.64 c-0.02 1.62 -0.06 3.12 -0.08 4.76 l0 0.12 z M56.12 18.18 c0.02 -0.12 0.04 -0.16 0.04 -0.22 c0.1 -0.96 0.08 -1.92 0.08 -2.9 c-0.02 -1.72 0.16 -3.46 0.32 -5.18 c0.04 -0.58 0.12 -1.16 0.18 -1.76 c0.02 -0.08 0 -0.18 -0.12 -0.2 c-0.04 0.04 -0.1 0.08 -0.1 0.12 c-0.44 3.36 -0.7 6.72 -0.4 10.14 z M67.11999999999999 11.14 c0.1 0.48 0 0.64 -0.48 0.78 c-0.4 0.1 -0.78 0.08 -1.16 -0.02 c-0.34 -0.08 -0.58 -0.28 -0.68 -0.62 c-0.08 -0.24 -0.14 -0.48 -0.2 -0.72 c-0.16 -0.68 -0.32 -1.36 -0.5 -2.02 c-0.06 -0.26 -0.16 -0.52 -0.26 -0.78 c-0.04 -0.1 -0.12 -0.2 -0.2 -0.36 c-0.36 0.28 -0.56 0.6 -0.68 0.96 c-0.26 0.82 -0.4 1.66 -0.28 2.52 c0.08 0.48 0.2 0.96 0.32 1.42 c0.26 0.92 0.74 1.74 1.42 2.42 c0.18 0.18 0.38 0.34 0.54 0.54 c0.26 0.32 0.56 0.64 0.78 1 c0.56 0.88 0.42 1.82 -0.32 2.54 c-0.46 0.44 -1 0.76 -1.6 0.96 c-0.94 0.3 -1.86 0.28 -2.78 -0.04 c-0.3 -0.12 -0.6 -0.28 -0.84 -0.48 c-0.58 -0.44 -0.74 -1.16 -0.42 -1.82 c0.4 -0.86 1.52 -1.32 2.42 -0.98 c0.06 0.02 0.12 0.06 0.18 0.1 c0.16 0.1 0.2 0.26 0.06 0.4 c-0.08 0.08 -0.2 0.16 -0.28 0.26 c-0.26 0.28 -0.42 0.62 -0.38 1.02 c0.02 0.28 0.14 0.5 0.38 0.66 c0.2 0.14 0.4 0.16 0.6 0.02 c0.18 -0.12 0.36 -0.24 0.52 -0.38 c0.42 -0.44 0.5 -0.98 0.22 -1.54 c-0.08 -0.16 -0.16 -0.32 -0.28 -0.44 c-0.22 -0.28 -0.44 -0.52 -0.68 -0.76 c-0.16 -0.2 -0.36 -0.36 -0.54 -0.54 c-0.78 -0.76 -1.3 -1.68 -1.58 -2.74 c-0.34 -1.28 -0.4 -2.54 -0.06 -3.82 c0.42 -1.66 1.74 -2.44 3.06 -2.54 c0.36 -0.04 0.72 -0.02 1.08 0.04 c0.84 0.12 1.42 0.62 1.78 1.38 c0.22 0.44 0.34 0.9 0.42 1.38 c0.14 0.72 0.28 1.46 0.42 2.2 z M61.63999999999999 7.4399999999999995 c0.02 -0.04 0 -0.12 0 -0.24 c-0.1 0.06 -0.18 0.08 -0.22 0.14 c-0.38 0.52 -0.68 1.06 -0.84 1.7 c-0.16 0.66 -0.08 1.34 -0.04 2 c0.04 -0.28 0.04 -0.58 0.06 -0.86 c0.02 -0.78 0.22 -1.5 0.66 -2.16 c0.12 -0.18 0.26 -0.38 0.38 -0.58 z M61.67999999999999 16.82 c0.1 0 0.02 -0.2 -0.08 -0.2 c-0.14 0 -0.28 0.02 -0.42 0.06 c-0.08 -0.02 -0.12 0 -0.16 0.04 c-0.32 0.1 -0.62 0.3 -0.88 0.56 c-0.06 0.06 0.08 0.24 0.14 0.18 c0.38 -0.4 0.86 -0.62 1.4 -0.64 z M64.74 15.52 c-0.08 -0.1 -0.22 0 -0.12 0.1 c0.2 0.26 0.42 0.52 0.6 0.78 c0.02 0.02 0.02 0.04 0.04 0.08 l0 0 l0.02 0 c0.18 0.32 0.24 0.68 0.28 1.04 c0.02 0.12 0.2 0.2 0.2 0.06 c-0.04 -0.36 -0.1 -0.72 -0.26 -1.04 c-0.2 -0.38 -0.5 -0.7 -0.76 -1.02 z M65.94 7.699999999999999 c0 0.04 -0.02 0.06 -0.02 0.1 l0.02 0 l0 -0.1 z M66.67999999999999 10.44 c0 -0.06 0.04 -0.14 0.02 -0.2 c-0.14 -0.78 -0.3 -1.54 -0.58 -2.26 c-0.02 0.1 -0.02 0.2 0 0.3 c0.12 0.64 0.24 1.28 0.38 1.94 c0.02 0.1 0.02 0.2 0.18 0.22 z M81.83999999999999 15.52 c0.28 0.14 0.38 0.32 0.24 0.6 c-0.36 0.8 -0.64 1.66 -1.16 2.38 c-0.3 0.44 -0.7 0.78 -1.2 1.02 c-1.78 0.82 -3.92 0.46 -5.3 -0.98 c-0.42 -0.42 -0.7 -0.94 -0.92 -1.48 c-0.5 -1.24 -0.66 -2.52 -0.54 -3.84 c0.1 -1.06 0.34 -2.1 0.76 -3.1 c0.48 -1.14 1.18 -2.12 2.16 -2.88 c1.14 -0.88 2.44 -1.3 3.9 -1.22 c0.52 0.02 0.96 0.26 1.36 0.58 c0.1 0.06 0.16 0.22 0.18 0.34 c0.04 0.18 0.04 0.36 0.04 0.56 c-0.02 0.78 -0.04 1.58 -0.04 2.36 c0 0.46 -0.1 0.6 -0.54 0.74 c-0.26 0.08 -0.52 0.08 -0.78 0 c-0.54 -0.12 -0.72 -0.3 -0.74 -0.84 c-0.04 -0.64 -0.04 -1.28 -0.08 -1.92 c0 -0.16 0.06 -0.32 -0.06 -0.5 c-0.22 0.04 -0.38 0.18 -0.52 0.3 c-0.64 0.5 -1.12 1.12 -1.52 1.82 c-0.44 0.82 -0.74 1.7 -0.94 2.6 c-0.24 1.14 -0.34 2.3 -0.16 3.48 c0.1 0.62 0.26 1.22 0.5 1.8 c0.26 0.6 0.68 1.08 1.3 1.38 c0.64 -0.4 1.4 -1.52 1.58 -2.28 c-0.1 0 -0.18 -0.02 -0.26 -0.02 c-0.4 0 -0.8 0.02 -1.2 0 c-0.32 0 -0.64 -0.04 -0.96 -0.08 c-0.08 0 -0.18 -0.02 -0.26 -0.06 c-0.18 -0.06 -0.38 -0.14 -0.4 -0.36 c0 -0.22 0.18 -0.32 0.38 -0.38 c0.3 -0.08 0.6 -0.18 0.92 -0.2 c0.92 -0.08 1.84 -0.16 2.78 -0.12 c0.4 0.02 0.82 0.06 1.22 0.2 c0.08 0.04 0.18 0.06 0.26 0.1 z M80.49999999999999 9.98 c-0.16 0.16 0.14 0.32 0.26 0.22 c0.26 -0.22 0.3 -0.58 0.3 -0.88 c0.02 -0.4 0.02 -1.24 0 -1.64 l0 0 c0.02 0.3 -0.04 0.82 -0.14 1.32 l-0.02 0 l0 0.08 c-0.1 0.36 -0.22 0.72 -0.4 0.9 z M73.53999999999999 14.2 c0.02 -1.68 0.46 -3.28 1.28 -4.76 c0.48 -0.88 1.1 -1.64 1.96 -2.22 c0.1 -0.08 0.44 -0.3 0.54 -0.4 c0.04 -0.02 0.06 -0.22 -0.22 -0.08 c-0.14 0.08 -0.24 0.12 -0.34 0.18 c-0.72 0.46 -1.32 1.06 -1.78 1.76 c-0.46 0.68 -0.82 1.42 -1.1 2.18 c-0.62 1.7 -0.76 3.44 -0.26 5.2 c0.02 0.1 0.04 0.24 0.14 0.28 l0.04 0.06 c-0.04 -0.26 -0.12 -0.64 -0.16 -0.9 c-0.04 -0.44 -0.1 -0.88 -0.1 -1.3 z M80.81999999999998 17.84 c0.46 -0.28 0.7 -1.06 0.8 -1.56 c0.02 -0.04 -0.38 -0.56 -0.36 0 c0 0.48 0.02 1.28 -0.44 1.56 c0 0 -0.08 0.04 0 0 z M90.6 10.62 c0.24 0.9 0.24 1.84 0.1 2.76 c-0.14 1 -0.36 2 -0.68 2.98 c-0.22 0.62 -0.48 1.22 -0.82 1.78 c-0.88 1.4 -2.52 1.94 -4.08 1.36 c-0.58 -0.24 -1 -0.64 -1.3 -1.18 c-0.36 -0.62 -0.56 -1.26 -0.72 -1.96 c-0.16 -0.78 -0.26 -1.58 -0.24 -2.4 c0 -1.14 0.14 -2.28 0.56 -3.34 c0.16 -0.4 0.34 -0.78 0.56 -1.14 c0.4 -0.64 0.92 -1.14 1.62 -1.44 c0.08 -0.02 0.14 -0.04 0.22 -0.08 c0.84 -0.5 1.68 -0.44 2.52 0.04 c0.22 0.14 0.46 0.3 0.68 0.44 c0.86 0.48 1.36 1.24 1.58 2.18 z M85.19999999999999 8.76 c0.14 -0.08 0.04 -0.08 -0.08 0 c-1.3 0.84 -1.82 2.3 -1.94 3.78 c-0.16 1.62 -0.16 3.44 0.66 4.9 c0.06 0.1 0.28 0 0.2 -0.12 c-0.74 -1.32 -0.74 -2.9 -0.66 -4.38 c0.08 -1.52 0.46 -3.3 1.82 -4.18 z M87.96 13.8 c0.1 -0.64 0.14 -1.3 0.1 -1.94 s-0.16 -1.28 -0.46 -1.84 c-0.2 -0.36 -0.44 -0.68 -0.84 -0.9 c-0.12 0.16 -0.22 0.28 -0.32 0.42 c-0.4 0.58 -0.64 1.24 -0.8 1.92 c-0.34 1.38 -0.38 2.78 -0.2 4.18 c0.08 0.7 0.26 1.4 0.54 2.06 c0.1 0.22 0.18 0.46 0.42 0.64 c0.1 -0.12 0.2 -0.2 0.26 -0.32 c0.2 -0.42 0.44 -0.86 0.6 -1.3 c0.36 -0.94 0.54 -1.92 0.7 -2.92 z M90.07999999999998 14.74 c0.26 -1 0.34 -2 0.24 -3.02 c-0.08 -0.72 -0.22 -1.66 -0.66 -2.26 c-0.06 -0.08 -0.18 -0.22 -0.04 -0.04 c0.24 0.36 0.26 0.92 0.34 1.44 c0.02 0.18 0.04 0.38 0.06 0.58 c0.02 0.22 0.04 0.44 0.04 0.64 c0.04 0.82 -0.06 1.66 -0.26 2.46 c-0.1 0.36 0.22 0.42 0.28 0.2 z M98.39999999999999 18.68 c0.12 0.08 0.24 0.18 0.22 0.34 c0 0.2 -0.16 0.28 -0.32 0.32 c-0.16 0.06 -0.32 0.08 -0.5 0.1 c-0.38 0.06 -0.76 0.1 -1.14 0.16 c-0.58 0.08 -1.16 0.18 -1.72 0.3 c-0.56 0.1 -1.1 0.16 -1.64 0.04 c-0.32 -0.08 -0.6 -0.16 -0.86 -0.34 c-0.2 -0.14 -0.3 -0.32 -0.32 -0.56 c-0.1 -2.12 -0.26 -4.24 -0.3 -6.36 c-0.04 -1.74 0.04 -3.48 0.08 -5.22 c0 -0.22 0.04 -0.42 0.06 -0.62 c0.02 -0.24 0.16 -0.4 0.4 -0.46 c0.6 -0.18 1.18 -0.14 1.72 0.22 c0.16 0.1 0.24 0.24 0.26 0.42 c0.04 0.24 0.06 0.5 0.08 0.76 c0.04 1.54 0.06 3.08 0.1 4.62 c0.06 1.84 0.14 3.7 0.2 5.54 c0 0.14 0.02 0.28 0.04 0.5 c0.36 -0.04 0.66 -0.06 0.94 -0.08 c0.62 -0.06 1.26 -0.04 1.88 0.04 c0.18 0.02 0.34 0.08 0.52 0.12 c0.1 0.04 0.2 0.1 0.3 0.16 z M92.52 9.1 l0 -0.6 c0 -0.06 -0.06 -0.12 -0.12 -0.24 c-0.06 0.14 -0.12 0.22 -0.12 0.28 c-0.2 2.74 -0.24 5.46 0.1 8.18 c0.02 -0.96 0.06 -1.9 0.02 -2.84 c-0.04 -1.6 0 -3.2 0.12 -4.78 z M98.02 18.8 c0.04 0.06 -0.02 -0.04 -0.04 -0.04 c-0.28 -0.22 -0.62 -0.28 -0.98 -0.28 c-0.52 -0.02 -1.12 0.02 -1.62 0.1 c-0.02 0 -0.14 0.1 0.06 0.08 c0.4 -0.04 0.92 -0.1 1.32 -0.1 c0.42 0 0.9 -0.02 1.26 0.24 z M107.46000000000001 9.52 c0.72 2.44 0.28 4.68 -1.28 6.7 c-0.94 1.22 -2.12 2.2 -3.44 2.98 c-0.24 0.16 -0.5 0.32 -0.74 0.48 c-0.56 0.32 -1.14 0.4 -1.76 0.22 c-0.12 -0.02 -0.24 -0.08 -0.36 -0.14 c-0.26 -0.16 -0.44 -0.38 -0.44 -0.7 c-0.02 -0.1 -0.02 -0.2 -0.04 -0.28 c-0.1 -2.3 -0.1 -4.6 0.06 -6.9 c0.1 -1.48 0.24 -2.96 0.38 -4.52 c0 -0.02 -0.02 -0.04 -0.04 -0.08 c-0.26 -0.3 -0.24 -0.36 0.08 -0.58 c0.54 -0.36 1.12 -0.46 1.74 -0.36 c0.24 0.04 0.48 0.02 0.72 0.02 c0.76 0 1.5 0.08 2.24 0.3 c1.44 0.44 2.44 1.36 2.88 2.86 z M100.58 9.16 c0.04 -0.34 0.06 -0.7 0.08 -1.04 c0 -0.08 -0.06 -0.6 -0.2 -0.28 c-0.06 0.16 -0.04 0.24 -0.06 0.36 c-0.06 0.48 -0.1 0.96 -0.14 1.42 c-0.06 0.64 -0.08 1.26 -0.14 1.88 c-0.14 1.8 -0.2 3.6 -0.14 5.4 c0 0.08 -0.04 0.18 0.1 0.26 c0.02 -0.2 0.04 -0.38 0.04 -0.56 c0.06 -1.2 0.1 -2.42 0.16 -3.64 c0.04 -0.76 0.08 -1.5 0.14 -2.26 c0.04 -0.52 0.1 -1.02 0.16 -1.54 z M105.3 11.96 c0.1 -1.14 -0.14 -2.2 -0.64 -3.2 c-0.34 -0.68 -0.9 -1.12 -1.64 -1.3 c-0.2 -0.04 -0.4 -0.1 -0.6 0 c-0.18 3.34 -0.28 6.68 -0.4 10 c0.16 0.06 0.24 -0.06 0.32 -0.12 c0.56 -0.46 1.08 -1 1.54 -1.56 c0.5 -0.62 0.84 -1.3 1.08 -2.04 c0.18 -0.58 0.28 -1.18 0.34 -1.78 z M107.2 12.36 c0.18 -1.52 -0.16 -3.46 -1.16 -4.3 c-0.08 -0.08 -0.14 -0.12 -0.12 -0.1 c0.1 0.16 0.18 0.32 0.26 0.48 c-0.02 -0.02 -0.02 -0.02 -0.04 -0.02 l0.08 0.08 c0.56 1.14 0.74 2.34 0.66 3.64 c-0.02 0.5 0.32 0.28 0.32 0.22 z M111.64 7.199999999999999 c-0.02 0.1 -0.04 0.16 -0.04 0.24 c0 2.56 0 5.1 0.02 7.66 c0 0.04 0.04 0.1 0.06 0.18 c0.32 -0.02 0.64 -0.08 0.96 -0.12 s0.66 -0.06 1 -0.06 c0.16 0 0.34 0.08 0.48 0.16 c0.2 0.1 0.2 0.32 0 0.44 c-0.2 0.1 -0.42 0.16 -0.64 0.2 c-0.42 0.1 -0.86 0.16 -1.28 0.24 c-0.18 0.04 -0.34 0.08 -0.52 0.14 c-0.02 0.72 0.02 1.44 0.14 2.14 c0.02 0.08 0.06 0.16 0.08 0.22 c0.08 0.24 0.24 0.38 0.5 0.4 c0.28 0 0.56 0.02 0.84 0 c0.52 -0.04 1.02 -0.08 1.52 -0.12 c0.24 -0.02 0.46 0 0.68 0.02 c0.1 0 0.2 0.04 0.28 0.06 c0.22 0.06 0.36 0.22 0.34 0.34 c-0.02 0.16 -0.16 0.24 -0.3 0.3 c-0.16 0.04 -0.34 0.1 -0.5 0.12 c-0.78 0.06 -1.54 0.14 -2.32 0.2 c-0.54 0.04 -1.1 0 -1.64 -0.1 c-0.24 -0.04 -0.48 -0.12 -0.7 -0.2 c-0.4 -0.18 -0.7 -0.48 -0.84 -0.88 c-0.1 -0.3 -0.2 -0.62 -0.24 -0.94 c-0.08 -0.98 -0.16 -1.96 -0.22 -2.94 c-0.1 -1.5 -0.06 -3.02 -0.02 -4.54 c0.02 -0.8 0.06 -1.62 0.1 -2.44 c0 -0.2 0.02 -0.4 0.02 -0.62 c-0.16 -0.1 -0.3 -0.18 -0.44 -0.28 c-0.12 -0.1 -0.14 -0.3 0.02 -0.38 c0.14 -0.1 0.32 -0.2 0.5 -0.24 c0.4 -0.1 0.82 -0.18 1.22 -0.22 c1.26 -0.1 2.54 -0.14 3.8 0.08 c0.22 0.04 0.44 0.12 0.62 0.22 c0.24 0.12 0.22 0.38 -0.02 0.48 c-0.18 0.1 -0.42 0.18 -0.64 0.2 c-0.3 0.04 -0.6 0 -0.9 0 l-1.58 0 c-0.12 0 -0.22 0.02 -0.34 0.04 z M109.78 7.619999999999999 c-0.18 0.38 -0.2 0.68 -0.26 3.2 c-0.02 1.06 -0.02 2.12 0 3.18 c0.04 1.06 0.1 2.12 0.3 3.16 c0.02 -0.3 0.02 -0.6 0.02 -0.9 c-0.02 -1.42 -0.1 -2.84 -0.08 -4.24 c0.02 -1.34 0.1 -2.68 0.16 -4.02 c0 -0.1 0 -0.2 -0.02 -0.28 c0 -0.04 -0.08 -0.06 -0.12 -0.1 z M125.22 6.92 c0.04 1.34 -0.2 2.66 -0.36 4 c-0.16 1.32 -0.36 2.62 -0.58 3.92 c-0.18 1.1 -0.4 2.2 -0.62 3.28 c-0.02 0.18 -0.08 0.34 -0.12 0.52 c-0.18 0.6 -0.44 0.8 -1.06 0.84 c-0.16 0.02 -0.32 0.02 -0.46 0 c-0.46 -0.04 -0.78 -0.26 -0.94 -0.72 c-0.4 -1.1 -0.8 -2.2 -1.1 -3.34 c-0.14 -0.52 -0.3 -1.02 -0.46 -1.54 l-0.12 0 l0 0.38 c0 0.88 0.02 1.74 0 2.6 c0 0.64 -0.06 1.26 -0.08 1.9 c-0.02 0.26 -0.14 0.42 -0.38 0.52 c-0.46 0.16 -0.9 0.16 -1.36 -0.02 c-0.24 -0.08 -0.36 -0.24 -0.38 -0.5 c-0.04 -0.78 -0.14 -1.54 -0.18 -2.3 c-0.14 -1.9 -0.26 -3.8 -0.22 -5.7 c0.02 -1.12 0.12 -2.26 0.18 -3.4 c0.02 -0.06 0.02 -0.14 0.04 -0.22 c0.04 -0.26 0.18 -0.42 0.42 -0.5 c0.44 -0.12 0.88 -0.12 1.3 0.02 c0.16 0.06 0.28 0.14 0.42 0.2 c0.18 0.08 0.26 0.22 0.32 0.38 l0.84 2.64 c0.5 1.62 1 3.22 1.5 4.84 c0.02 0.08 0.06 0.16 0.1 0.24 c0.14 0.02 0.12 -0.1 0.12 -0.16 c0.26 -2 0.52 -4 0.76 -6 c0.04 -0.32 0.06 -0.64 0.08 -0.96 c0.02 -0.36 0.12 -0.68 0.26 -1 c0.1 -0.18 0.22 -0.32 0.42 -0.38 c0.46 -0.16 0.94 -0.18 1.4 0.02 c0.24 0.08 0.26 0.18 0.26 0.44 z M117.66 9.68 c0 -0.46 0.1 -0.94 0 -1.44 c-0.08 0.06 -0.14 0.08 -0.16 0.12 c-0.04 0.1 -0.04 0.18 -0.06 0.28 c-0.06 1.38 -0.14 2.76 -0.18 4.14 c-0.04 1.32 0.08 2.64 0.28 3.96 l0 -1.42 c0 -0.46 -0.02 -0.92 -0.02 -1.38 c0 -0.48 0.02 -0.96 0.02 -1.44 c0.02 -0.48 0.02 -0.96 0.04 -1.44 c0.02 -0.46 0.08 -0.92 0.08 -1.38 z M121.08 14.18 c0.12 0.36 0.22 0.1 0.22 0.08 c-0.08 -0.28 -0.18 -0.62 -0.28 -0.98 l0 -0.02 c-0.02 -0.04 -0.04 -0.06 -0.04 -0.1 c-0.32 -1.08 -0.72 -2.4 -1 -3.22 c-0.02 -0.06 -0.06 0 -0.06 0.02 c0.06 1.08 0.82 3.1 1.16 4.22 z M123.52 8.48 c0.02 -0.1 0.04 -0.22 -0.12 -0.26 c-0.04 0.02 -0.08 0.04 -0.08 0.06 c-0.18 1.04 -0.38 2.08 -0.52 3.12 c-0.08 0.6 -0.18 1.2 -0.14 1.84 c0.04 -0.06 0.06 -0.08 0.08 -0.12 c0.18 -1.1 0.38 -2.22 0.56 -3.32 c0.08 -0.44 0.16 -0.88 0.22 -1.32 z" style="block-size:auto;d:path(&quot;M 7.54 11.14 C 7.64 11.62 7.54 11.78 7.06 11.92 C 6.66 12.02 6.28 12 5.9 11.9 C 5.56 11.82 5.32 11.62 5.22 11.28 C 5.14 11.04 5.08 10.8 5.02 10.56 C 4.86 9.88 4.7 9.2 4.52 8.54 C 4.46 8.28 4.36 8.02 4.26 7.76 C 4.22 7.66 4.14 7.56 4.06 7.4 C 3.7 7.68 3.5 8 3.38 8.36 C 3.12 9.18 2.98 10.02 3.1 10.88 C 3.18 11.36 3.3 11.84 3.42 12.3 C 3.68 13.22 4.16 14.04 4.84 14.72 C 5.02 14.9 5.22 15.06 5.38 15.26 C 5.64 15.58 5.94 15.9 6.16 16.26 C 6.72 17.14 6.58 18.08 5.84 18.8 C 5.38 19.24 4.84 19.56 4.24 19.76 C 3.3 20.06 2.38 20.04 1.46 19.72 C 1.16 19.6 0.86 19.44 0.62 19.24 C 0.0399998 18.8 -0.12 18.08 0.2 17.42 C 0.6 16.56 1.72 16.1 2.62 16.44 C 2.68 16.46 2.74 16.5 2.8 16.54 C 2.96 16.64 3 16.8 2.86 16.94 C 2.78 17.02 2.66 17.1 2.58 17.2 C 2.32 17.48 2.16 17.82 2.2 18.22 C 2.22 18.5 2.34 18.72 2.58 18.88 C 2.78 19.02 2.98 19.04 3.18 18.9 C 3.36 18.78 3.54 18.66 3.7 18.52 C 4.12 18.08 4.2 17.54 3.92 16.98 C 3.84 16.82 3.76 16.66 3.64 16.54 C 3.42 16.26 3.2 16.02 2.96 15.78 C 2.8 15.58 2.6 15.42 2.42 15.24 C 1.64 14.48 1.12 13.56 0.84 12.5 C 0.5 11.22 0.44 9.96 0.78 8.68 C 1.2 7.02 2.52 6.24 3.84 6.14 C 4.2 6.1 4.56 6.12 4.92 6.18 C 5.76 6.3 6.34 6.8 6.7 7.56 C 6.92 8 7.04 8.46 7.12 8.94 C 7.26 9.66 7.4 10.4 7.54 11.14 Z M 2.06 7.44 C 2.08 7.4 2.06 7.32 2.06 7.2 C 1.96 7.26 1.88 7.28 1.84 7.34 C 1.46 7.86 1.16 8.4 1 9.04 C 0.84 9.7 0.92 10.38 0.96 11.04 C 1 10.76 1 10.46 1.02 10.18 C 1.04 9.4 1.24 8.68 1.68 8.02 C 1.8 7.84 1.94 7.64 2.06 7.44 Z M 2.1 16.82 C 2.2 16.82 2.12 16.62 2.02 16.62 C 1.88 16.62 1.74 16.64 1.6 16.68 C 1.52 16.66 1.48 16.68 1.44 16.72 C 1.12 16.82 0.82 17.02 0.56 17.28 C 0.5 17.34 0.64 17.52 0.7 17.46 C 1.08 17.06 1.56 16.84 2.1 16.82 Z M 5.16 15.52 C 5.08 15.42 4.94 15.52 5.04 15.62 C 5.24 15.88 5.46 16.14 5.64 16.4 C 5.66 16.42 5.66 16.44 5.68 16.48 L 5.68 16.48 L 5.7 16.48 C 5.88 16.8 5.94 17.16 5.98 17.52 C 6 17.64 6.18 17.72 6.18 17.58 C 6.14 17.22 6.08 16.86 5.92 16.54 C 5.72 16.16 5.42 15.84 5.16 15.52 Z M 6.36 7.7 C 6.36 7.74 6.34 7.76 6.34 7.8 L 6.36 7.8 L 6.36 7.7 Z M 7.1 10.44 C 7.1 10.38 7.14 10.3 7.12 10.24 C 6.98 9.46 6.82 8.7 6.54 7.98 C 6.52 8.08 6.52 8.18 6.54 8.28 C 6.66 8.92 6.78 9.56 6.92 10.22 C 6.94 10.32 6.94 10.42 7.1 10.44 Z M 10.96 12.86 C 10.9 14.4 10.84 15.96 10.76 17.5 C 10.74 18.2 10.66 18.9 10.62 19.6 C 10.62 19.88 10.48 20.06 10.22 20.14 C 9.78 20.28 9.34 20.28 8.9 20.12 C 8.66 20.04 8.54 19.88 8.5 19.62 C 8.42 18.76 8.34 17.9 8.34 17.04 C 8.36 15.7 8.38 14.38 8.42 13.04 C 8.44 12.3 8.48 11.56 8.52 10.84 C 8.58 9.84 8.64 8.84 8.72 7.84 C 8.72 7.66 8.76 7.48 8.78 7.32 C 8.82 7.04 8.98 6.86 9.24 6.78 C 9.7 6.64 10.16 6.64 10.62 6.82 C 10.86 6.9 11 7.08 11 7.34 C 11.02 7.56 11.04 7.76 11.04 7.98 C 11.02 9.6 10.98 11.1 10.96 12.74 L 10.96 12.86 Z M 8.8 18.18 C 8.82 18.06 8.84 18.02 8.84 17.96 C 8.94 17 8.92 16.04 8.92 15.06 C 8.9 13.34 9.08 11.6 9.24 9.88 C 9.28 9.3 9.36 8.72 9.42 8.12 C 9.44 8.04 9.42 7.94 9.3 7.92 C 9.26 7.96 9.2 8 9.2 8.04 C 8.76 11.4 8.5 14.76 8.8 18.18 Z M 23.2 16.02 C 23.26 16.2 22.98 16.42 22.62 16.5 C 22.3 16.58 21.98 16.62 21.66 16.66 C 20.94 16.74 20.2 16.8 19.48 16.88 C 19.02 16.94 18.56 16.9 18.12 16.8 C 17.36 16.64 17.02 16.24 16.94 15.48 C 16.86 14.74 16.88 14.02 16.98 13.28 C 17.12 12.38 17.26 11.46 17.38 10.56 C 17.48 9.64 17.54 8.74 17.6 7.82 C 17.68 6.84 17.7 6.76 18.7 6.56 C 19.82 6.32 20.96 6.22 22.1 6.48 C 22.42 6.54 22.74 6.62 23 6.82 C 23.22 7.02 23.2 7.3 22.92 7.44 C 22.78 7.5 22.62 7.56 22.48 7.56 C 22.1 7.56 21.74 7.56 21.38 7.5 C 20.98 7.42 20.6 7.4 20.22 7.46 C 19.86 7.5 19.76 7.64 19.74 8 C 19.68 8.82 19.64 9.66 19.56 10.48 C 19.5 11.08 19.42 11.7 19.34 12.32 C 19.32 12.42 19.32 12.54 19.3 12.74 C 19.56 12.76 19.74 12.8 19.92 12.8 C 20.16 12.8 20.42 12.78 20.68 12.8 C 20.8 12.8 20.94 12.82 21.08 12.88 S 21.38 13.04 21.34 13.22 C 21.32 13.34 21.24 13.5 21.12 13.54 C 20.9 13.66 20.66 13.76 20.42 13.78 C 20.04 13.82 19.64 13.78 19.3 13.78 C 19.06 13.96 19.1 14.2 19.1 14.38 C 19.12 14.86 19.04 15.34 19.28 15.82 C 19.46 15.82 19.64 15.84 19.82 15.82 C 20.42 15.76 21 15.68 21.6 15.62 C 21.92 15.58 22.24 15.56 22.56 15.6 C 22.82 15.64 23.12 15.7 23.2 16.02 Z M 21.44 6.66 C 21.34 6.66 21.26 6.68 21.16 6.68 L 21.16 6.74 L 21.18 6.74 C 21.14 6.76 21.14 6.86 21.22 6.86 C 21.4 6.86 21.56 6.86 21.72 6.88 C 21.78 6.9 21.86 6.94 21.92 6.96 L 21.94 6.96 L 21.92 6.96 L 21.92 6.9 C 21.98 6.92 22.02 6.92 22.06 6.94 L 22.02 6.94 C 22.06 6.94 22.1 6.96 22.14 6.96 C 22.24 6.98 22.34 7.02 22.44 7.08 C 22.52 7.14 22.58 7 22.5 6.96 C 22.48 6.94 22.44 6.94 22.42 6.92 L 22.48 6.86 C 22.44 6.88 22.4 6.88 22.36 6.88 C 22.14 6.8 21.9 6.76 21.66 6.74 C 21.6 6.72 21.52 6.68 21.46 6.66 C 21.46 6.68 21.48 6.7 21.48 6.72 L 21.24 6.72 C 21.3 6.7 21.38 6.68 21.46 6.66 L 21.44 6.66 Z M 17.68 13.66 C 17.7 13.62 17.7 13.56 17.7 13.5 L 17.7 13.34 C 17.72 13.16 17.44 13.16 17.42 13.34 C 17.4 13.56 17.38 13.76 17.36 13.96 C 17.34 14.14 17.64 14.14 17.66 13.96 C 17.66 13.86 17.68 13.76 17.68 13.66 Z M 18.1 9.38 C 18.16 8.86 18.2 8.32 18.26 7.8 C 18.28 7.62 18 7.62 17.98 7.8 C 17.8 9.42 17.62 11.06 17.46 12.68 C 17.44 12.86 17.72 12.86 17.74 12.68 C 17.74 12.62 17.76 12.54 17.76 12.48 C 17.84 12.38 17.84 12.24 17.84 12.14 C 17.9 11.68 17.94 11.22 17.98 10.78 C 18.02 10.3 18.06 9.84 18.1 9.38 Z M 22.34 16 C 22.44 16.02 22.48 15.88 22.38 15.86 C 22.06 15.8 21.76 15.8 21.46 15.9 C 21.38 15.94 21.4 16.06 21.5 16.04 C 21.78 15.96 22.06 15.94 22.34 16 Z M 22.58 18.34 C 22.98 18.54 22.98 18.9 22.6 19.14 C 22.38 19.26 22.14 19.36 21.9 19.4 C 21.58 19.48 21.26 19.52 20.94 19.56 C 19.62 19.68 18.3 19.82 16.98 19.92 C 16.06 20 15.14 20.08 14.22 19.98 C 13.84 19.94 13.46 19.84 13.1 19.72 C 12.42 19.46 12.2 19.12 12.22 18.4 C 12.22 18.02 12.24 17.62 12.3 17.24 C 12.6 14.68 12.92 12.14 13.24 9.58 C 13.34 8.72 13.5 7.86 13.62 7 C 13.7 6.38 14.06 6.06 14.64 5.96 C 15.16 5.88 15.68 5.86 16.2 6.06 C 16.58 6.22 16.7 6.36 16.68 6.78 C 16.62 8.16 16.56 9.54 16.46 10.92 C 16.38 12.1 16.24 13.28 16.12 14.48 C 16 15.56 15.88 16.66 15.78 17.76 C 15.76 17.96 15.74 18.16 15.74 18.42 C 15.98 18.42 16.1 18.44 16.24 18.42 C 17.56 18.34 18.86 18.26 20.16 18.16 C 20.42 18.16 20.66 18.12 20.92 18.1 C 21.36 18.04 21.78 18.04 22.2 18.18 C 22.34 18.22 22.48 18.26 22.58 18.34 Z M 13.04 16.64 C 13.06 16.42 13.1 16.2 13.14 15.98 C 13.18 15.8 12.9 15.72 12.86 15.9 C 12.84 16.12 12.8 16.34 12.76 16.56 C 12.72 16.74 13 16.82 13.04 16.64 Z M 14.28 7.18 C 14.32 7 14.06 6.92 14 7.1 C 13.66 8.32 13.58 9.66 13.42 10.94 C 13.34 11.62 13.26 12.3 13.18 13 C 13.12 13.7 13.14 14.46 12.96 15.16 C 12.92 15.34 13.2 15.42 13.24 15.24 C 13.54 14.04 13.5 12.7 13.64 11.48 C 13.8 10.06 13.9 8.56 14.28 7.18 Z M 21.86 18.6 C 21.94 18.6 21.94 18.46 21.86 18.44 C 21.2 18.38 20.58 18.46 19.96 18.64 C 19.92 18.64 19.92 18.66 19.9 18.66 C 19.88 18.68 19.86 18.68 19.84 18.68 C 19.86 18.7 19.88 18.7 19.9 18.7 C 19.9 18.74 19.94 18.78 19.98 18.76 L 20.28 18.7 C 20.68 18.68 21.08 18.64 21.5 18.58 C 21.62 18.58 21.74 18.58 21.86 18.6 Z M 32.46 6.92 C 32.5 8.26 32.26 9.58 32.1 10.92 C 31.94 12.24 31.74 13.54 31.52 14.84 C 31.34 15.94 31.12 17.04 30.9 18.12 C 30.88 18.3 30.82 18.46 30.78 18.64 C 30.6 19.24 30.34 19.44 29.72 19.48 C 29.56 19.5 29.4 19.5 29.26 19.48 C 28.8 19.44 28.48 19.22 28.32 18.76 C 27.92 17.66 27.52 16.56 27.22 15.42 C 27.08 14.9 26.92 14.4 26.76 13.88 L 26.64 13.88 L 26.64 14.26 C 26.64 15.14 26.66 16 26.64 16.86 C 26.64 17.5 26.58 18.12 26.56 18.76 C 26.54 19.02 26.42 19.18 26.18 19.28 C 25.72 19.44 25.28 19.44 24.82 19.26 C 24.58 19.18 24.46 19.02 24.44 18.76 C 24.4 17.98 24.3 17.22 24.26 16.46 C 24.12 14.56 24 12.66 24.04 10.76 C 24.06 9.64 24.16 8.5 24.22 7.36 C 24.24 7.3 24.24 7.22 24.26 7.14 C 24.3 6.88 24.44 6.72 24.68 6.64 C 25.12 6.52 25.56 6.52 25.98 6.66 C 26.14 6.72 26.26 6.8 26.4 6.86 C 26.58 6.94 26.66 7.08 26.72 7.24 L 27.56 9.88 C 28.06 11.5 28.56 13.1 29.06 14.72 C 29.08 14.8 29.12 14.88 29.16 14.96 C 29.3 14.98 29.28 14.86 29.28 14.8 C 29.54 12.8 29.8 10.8 30.04 8.8 C 30.08 8.48 30.1 8.16 30.12 7.84 C 30.14 7.48 30.24 7.16 30.38 6.84 C 30.48 6.66 30.6 6.52 30.8 6.46 C 31.26 6.3 31.74 6.28 32.2 6.48 C 32.44 6.56 32.46 6.66 32.46 6.92 Z M 24.9 9.68 C 24.9 9.22 25 8.74 24.9 8.24 C 24.82 8.3 24.76 8.32 24.74 8.36 C 24.7 8.46 24.7 8.54 24.68 8.64 C 24.62 10.02 24.54 11.4 24.5 12.78 C 24.46 14.1 24.58 15.42 24.78 16.74 L 24.78 15.32 C 24.78 14.86 24.76 14.4 24.76 13.94 C 24.76 13.46 24.78 12.98 24.78 12.5 C 24.8 12.02 24.8 11.54 24.82 11.06 C 24.84 10.6 24.9 10.14 24.9 9.68 Z M 28.32 14.18 C 28.44 14.54 28.54 14.28 28.54 14.26 C 28.46 13.98 28.36 13.64 28.26 13.28 L 28.26 13.26 C 28.24 13.22 28.22 13.2 28.22 13.16 C 27.9 12.08 27.5 10.76 27.22 9.94 C 27.2 9.88 27.16 9.94 27.16 9.96 C 27.22 11.04 27.98 13.06 28.32 14.18 Z M 30.76 8.48 C 30.78 8.38 30.8 8.26 30.64 8.22 C 30.6 8.24 30.56 8.26 30.56 8.28 C 30.38 9.32 30.18 10.36 30.04 11.4 C 29.96 12 29.86 12.6 29.9 13.24 C 29.94 13.18 29.96 13.16 29.98 13.12 C 30.16 12.02 30.36 10.9 30.54 9.8 C 30.62 9.36 30.7 8.92 30.76 8.48 Z M 41.62 15.72 C 41.82 15.84 41.84 15.98 41.74 16.2 C 41.72 16.22 41.72 16.24 41.72 16.26 C 41.1 17.1 40.52 18 39.74 18.7 C 38.54 19.78 37.14 19.9 35.68 19.36 C 35.26 19.22 34.92 18.94 34.64 18.6 C 34.14 18.06 33.82 17.4 33.6 16.68 C 33.44 16.18 33.36 15.66 33.32 15.14 C 33.26 13.7 33.38 12.28 33.82 10.9 C 34.1 10.02 34.5 9.2 35.08 8.46 C 36.36 6.9 38.22 6.78 39.62 7.3 C 40.2 7.5 40.68 7.86 41.08 8.34 C 41.32 8.66 41.48 9.02 41.56 9.42 C 41.62 9.78 41.48 10.04 41.12 10.16 C 40.7 10.3 40.26 10.3 39.84 10.16 C 39.64 10.1 39.48 9.96 39.4 9.76 C 39.32 9.62 39.26 9.48 39.18 9.36 C 38.94 8.98 38.66 8.64 38.2 8.38 C 37.9 8.58 37.68 8.84 37.48 9.12 C 36.94 9.88 36.62 10.74 36.42 11.64 C 36.1 13.02 36 14.4 36.18 15.8 C 36.26 16.38 36.4 16.94 36.64 17.48 C 36.8 17.82 36.98 18.14 37.28 18.42 C 37.4 18.38 37.52 18.34 37.6 18.24 C 37.96 17.94 38.3 17.62 38.62 17.28 C 39 16.88 39.38 16.48 39.66 16.02 C 40.02 15.48 41.1 15.4 41.62 15.72 Z M 34.22 16.74 C 34.36 17.06 34.38 16.68 34.32 16.48 C 34.3 16.38 34.26 16.28 34.22 16.16 L 34.22 16.14 L 34.2 16.14 C 34.18 16.04 34.14 15.96 34.14 15.88 C 34.14 15.88 34.08 16.4 34.22 16.74 Z M 35.36 9.28 C 35.38 9.2 35.38 9.1 35.3 9.1 C 35.24 9.08 35.18 9.14 35.12 9.18 C 35.1 9.22 35.08 9.26 35.06 9.28 C 34.1 11.3 33.72 13.42 34.16 15.64 L 34.16 14.62 C 34.14 12.84 34.48 11.14 35.24 9.54 C 35.28 9.44 35.32 9.36 35.36 9.28 Z M 45.44 7.2 C 45.42 7.3 45.4 7.36 45.4 7.44 C 45.4 10 45.4 12.54 45.42 15.1 C 45.42 15.14 45.46 15.2 45.48 15.28 C 45.8 15.26 46.12 15.2 46.44 15.16 S 47.1 15.1 47.44 15.1 C 47.6 15.1 47.78 15.18 47.92 15.26 C 48.12 15.36 48.12 15.58 47.92 15.7 C 47.72 15.8 47.5 15.86 47.28 15.9 C 46.86 16 46.42 16.06 46 16.14 C 45.82 16.18 45.66 16.22 45.48 16.28 C 45.46 17 45.5 17.72 45.62 18.42 C 45.64 18.5 45.68 18.58 45.7 18.64 C 45.78 18.88 45.94 19.02 46.2 19.04 C 46.48 19.04 46.76 19.06 47.04 19.04 C 47.56 19 48.06 18.96 48.56 18.92 C 48.8 18.9 49.02 18.92 49.24 18.94 C 49.34 18.94 49.44 18.98 49.52 19 C 49.74 19.06 49.88 19.22 49.86 19.34 C 49.84 19.5 49.7 19.58 49.56 19.64 C 49.4 19.68 49.22 19.74 49.06 19.76 C 48.28 19.82 47.52 19.9 46.74 19.96 C 46.2 20 45.64 19.96 45.1 19.86 C 44.86 19.82 44.62 19.74 44.4 19.66 C 44 19.48 43.7 19.18 43.56 18.78 C 43.46 18.48 43.36 18.16 43.32 17.84 C 43.24 16.86 43.16 15.88 43.1 14.9 C 43 13.4 43.04 11.88 43.08 10.36 C 43.1 9.56 43.14 8.74 43.18 7.92 C 43.18 7.72 43.2 7.52 43.2 7.3 C 43.04 7.2 42.9 7.12 42.76 7.02 C 42.64 6.92 42.62 6.72 42.78 6.64 C 42.92 6.54 43.1 6.44 43.28 6.4 C 43.68 6.3 44.1 6.22 44.5 6.18 C 45.76 6.08 47.04 6.04 48.3 6.26 C 48.52 6.3 48.74 6.38 48.92 6.48 C 49.16 6.6 49.14 6.86 48.9 6.96 C 48.72 7.06 48.48 7.14 48.26 7.16 C 47.96 7.2 47.66 7.16 47.36 7.16 L 45.78 7.16 C 45.66 7.16 45.56 7.18 45.44 7.2 Z M 43.58 7.62 C 43.4 8 43.38 8.3 43.32 10.82 C 43.3 11.88 43.3 12.94 43.32 14 C 43.36 15.06 43.42 16.12 43.62 17.16 C 43.64 16.86 43.64 16.56 43.64 16.26 C 43.62 14.84 43.54 13.42 43.56 12.02 C 43.58 10.68 43.66 9.34 43.72 8 C 43.72 7.9 43.72 7.8 43.7 7.72 C 43.7 7.68 43.62 7.66 43.58 7.62 Z M 58.28 12.86 C 58.22 14.4 58.16 15.96 58.08 17.5 C 58.06 18.2 57.98 18.9 57.94 19.6 C 57.94 19.88 57.8 20.06 57.54 20.14 C 57.1 20.28 56.66 20.28 56.22 20.12 C 55.98 20.04 55.86 19.88 55.82 19.62 C 55.74 18.76 55.66 17.9 55.66 17.04 C 55.68 15.7 55.7 14.38 55.74 13.04 C 55.76 12.3 55.8 11.56 55.84 10.84 C 55.9 9.84 55.96 8.84 56.04 7.84 C 56.04 7.66 56.08 7.48 56.1 7.32 C 56.14 7.04 56.3 6.86 56.56 6.78 C 57.02 6.64 57.48 6.64 57.94 6.82 C 58.18 6.9 58.32 7.08 58.32 7.34 C 58.34 7.56 58.36 7.76 58.36 7.98 C 58.34 9.6 58.3 11.1 58.28 12.74 L 58.28 12.86 Z M 56.12 18.18 C 56.14 18.06 56.16 18.02 56.16 17.96 C 56.26 17 56.24 16.04 56.24 15.06 C 56.22 13.34 56.4 11.6 56.56 9.88 C 56.6 9.3 56.68 8.72 56.74 8.12 C 56.76 8.04 56.74 7.94 56.62 7.92 C 56.58 7.96 56.52 8 56.52 8.04 C 56.08 11.4 55.82 14.76 56.12 18.18 Z M 67.12 11.14 C 67.22 11.62 67.12 11.78 66.64 11.92 C 66.24 12.02 65.86 12 65.48 11.9 C 65.14 11.82 64.9 11.62 64.8 11.28 C 64.72 11.04 64.66 10.8 64.6 10.56 C 64.44 9.88 64.28 9.2 64.1 8.54 C 64.04 8.28 63.94 8.02 63.84 7.76 C 63.8 7.66 63.72 7.56 63.64 7.4 C 63.28 7.68 63.08 8 62.96 8.36 C 62.7 9.18 62.56 10.02 62.68 10.88 C 62.76 11.36 62.88 11.84 63 12.3 C 63.26 13.22 63.74 14.04 64.42 14.72 C 64.6 14.9 64.8 15.06 64.96 15.26 C 65.22 15.58 65.52 15.9 65.74 16.26 C 66.3 17.14 66.16 18.08 65.42 18.8 C 64.96 19.24 64.42 19.56 63.82 19.76 C 62.88 20.06 61.96 20.04 61.04 19.72 C 60.74 19.6 60.44 19.44 60.2 19.24 C 59.62 18.8 59.46 18.08 59.78 17.42 C 60.18 16.56 61.3 16.1 62.2 16.44 C 62.26 16.46 62.32 16.5 62.38 16.54 C 62.54 16.64 62.58 16.8 62.44 16.94 C 62.36 17.02 62.24 17.1 62.16 17.2 C 61.9 17.48 61.74 17.82 61.78 18.22 C 61.8 18.5 61.92 18.72 62.16 18.88 C 62.36 19.02 62.56 19.04 62.76 18.9 C 62.94 18.78 63.12 18.66 63.28 18.52 C 63.7 18.08 63.78 17.54 63.5 16.98 C 63.42 16.82 63.34 16.66 63.22 16.54 C 63 16.26 62.78 16.02 62.54 15.78 C 62.38 15.58 62.18 15.42 62 15.24 C 61.22 14.48 60.7 13.56 60.42 12.5 C 60.08 11.22 60.02 9.96 60.36 8.68 C 60.78 7.02 62.1 6.24 63.42 6.14 C 63.78 6.1 64.14 6.12 64.5 6.18 C 65.34 6.3 65.92 6.8 66.28 7.56 C 66.5 8 66.62 8.46 66.7 8.94 C 66.84 9.66 66.98 10.4 67.12 11.14 Z M 61.64 7.44 C 61.66 7.4 61.64 7.32 61.64 7.2 C 61.54 7.26 61.46 7.28 61.42 7.34 C 61.04 7.86 60.74 8.4 60.58 9.04 C 60.42 9.7 60.5 10.38 60.54 11.04 C 60.58 10.76 60.58 10.46 60.6 10.18 C 60.62 9.4 60.82 8.68 61.26 8.02 C 61.38 7.84 61.52 7.64 61.64 7.44 Z M 61.68 16.82 C 61.78 16.82 61.7 16.62 61.6 16.62 C 61.46 16.62 61.32 16.64 61.18 16.68 C 61.1 16.66 61.06 16.68 61.02 16.72 C 60.7 16.82 60.4 17.02 60.14 17.28 C 60.08 17.34 60.22 17.52 60.28 17.46 C 60.66 17.06 61.14 16.84 61.68 16.82 Z M 64.74 15.52 C 64.66 15.42 64.52 15.52 64.62 15.62 C 64.82 15.88 65.04 16.14 65.22 16.4 C 65.24 16.42 65.24 16.44 65.26 16.48 L 65.26 16.48 L 65.28 16.48 C 65.46 16.8 65.52 17.16 65.56 17.52 C 65.58 17.64 65.76 17.72 65.76 17.58 C 65.72 17.22 65.66 16.86 65.5 16.54 C 65.3 16.16 65 15.84 64.74 15.52 Z M 65.94 7.7 C 65.94 7.74 65.92 7.76 65.92 7.8 L 65.94 7.8 L 65.94 7.7 Z M 66.68 10.44 C 66.68 10.38 66.72 10.3 66.7 10.24 C 66.56 9.46 66.4 8.7 66.12 7.98 C 66.1 8.08 66.1 8.18 66.12 8.28 C 66.24 8.92 66.36 9.56 66.5 10.22 C 66.52 10.32 66.52 10.42 66.68 10.44 Z M 81.84 15.52 C 82.12 15.66 82.22 15.84 82.08 16.12 C 81.72 16.92 81.44 17.78 80.92 18.5 C 80.62 18.94 80.22 19.28 79.72 19.52 C 77.94 20.34 75.8 19.98 74.42 18.54 C 74 18.12 73.72 17.6 73.5 17.06 C 73 15.82 72.84 14.54 72.96 13.22 C 73.06 12.16 73.3 11.12 73.72 10.12 C 74.2 8.98 74.9 8 75.88 7.24 C 77.02 6.36 78.32 5.94 79.78 6.02 C 80.3 6.04 80.74 6.28 81.14 6.6 C 81.24 6.66 81.3 6.82 81.32 6.94 C 81.36 7.12 81.36 7.3 81.36 7.5 C 81.34 8.28 81.32 9.08 81.32 9.86 C 81.32 10.32 81.22 10.46 80.78 10.6 C 80.52 10.68 80.26 10.68 80 10.6 C 79.46 10.48 79.28 10.3 79.26 9.76 C 79.22 9.12 79.22 8.48 79.18 7.84 C 79.18 7.68 79.24 7.52 79.12 7.34 C 78.9 7.38 78.74 7.52 78.6 7.64 C 77.96 8.14 77.48 8.76 77.08 9.46 C 76.64 10.28 76.34 11.16 76.14 12.06 C 75.9 13.2 75.8 14.36 75.98 15.54 C 76.08 16.16 76.24 16.76 76.48 17.34 C 76.74 17.94 77.16 18.42 77.78 18.72 C 78.42 18.32 79.18 17.2 79.36 16.44 C 79.26 16.44 79.18 16.42 79.1 16.42 C 78.7 16.42 78.3 16.44 77.9 16.42 C 77.58 16.42 77.26 16.38 76.94 16.34 C 76.86 16.34 76.76 16.32 76.68 16.28 C 76.5 16.22 76.3 16.14 76.28 15.92 C 76.28 15.7 76.46 15.6 76.66 15.54 C 76.96 15.46 77.26 15.36 77.58 15.34 C 78.5 15.26 79.42 15.18 80.36 15.22 C 80.76 15.24 81.18 15.28 81.58 15.42 C 81.66 15.46 81.76 15.48 81.84 15.52 Z M 80.5 9.98 C 80.34 10.14 80.64 10.3 80.76 10.2 C 81.02 9.98 81.06 9.62 81.06 9.32 C 81.08 8.92 81.08 8.08 81.06 7.68 L 81.06 7.68 C 81.08 7.98 81.02 8.5 80.92 9 L 80.9 9 L 80.9 9.08 C 80.8 9.44 80.68 9.8 80.5 9.98 Z M 73.54 14.2 C 73.56 12.52 74 10.92 74.82 9.44 C 75.3 8.56 75.92 7.8 76.78 7.22 C 76.88 7.14 77.22 6.92 77.32 6.82 C 77.36 6.8 77.38 6.6 77.1 6.74 C 76.96 6.82 76.86 6.86 76.76 6.92 C 76.04 7.38 75.44 7.98 74.98 8.68 C 74.52 9.36 74.16 10.1 73.88 10.86 C 73.26 12.56 73.12 14.3 73.62 16.06 C 73.64 16.16 73.66 16.3 73.76 16.34 L 73.8 16.4 C 73.76 16.14 73.68 15.76 73.64 15.5 C 73.6 15.06 73.54 14.62 73.54 14.2 Z M 80.82 17.84 C 81.28 17.56 81.52 16.78 81.62 16.28 C 81.64 16.24 81.24 15.72 81.26 16.28 C 81.26 16.76 81.28 17.56 80.82 17.84 C 80.82 17.84 80.74 17.88 80.82 17.84 Z M 90.6 10.62 C 90.84 11.52 90.84 12.46 90.7 13.38 C 90.56 14.38 90.34 15.38 90.02 16.36 C 89.8 16.98 89.54 17.58 89.2 18.14 C 88.32 19.54 86.68 20.08 85.12 19.5 C 84.54 19.26 84.12 18.86 83.82 18.32 C 83.46 17.7 83.26 17.06 83.1 16.36 C 82.94 15.58 82.84 14.78 82.86 13.96 C 82.86 12.82 83 11.68 83.42 10.62 C 83.58 10.22 83.76 9.84 83.98 9.48 C 84.38 8.84 84.9 8.34 85.6 8.04 C 85.68 8.02 85.74 8 85.82 7.96 C 86.66 7.46 87.5 7.52 88.34 8 C 88.56 8.14 88.8 8.3 89.02 8.44 C 89.88 8.92 90.38 9.68 90.6 10.62 Z M 85.2 8.76 C 85.34 8.68 85.24 8.68 85.12 8.76 C 83.82 9.6 83.3 11.06 83.18 12.54 C 83.02 14.16 83.02 15.98 83.84 17.44 C 83.9 17.54 84.12 17.44 84.04 17.32 C 83.3 16 83.3 14.42 83.38 12.94 C 83.46 11.42 83.84 9.64 85.2 8.76 Z M 87.96 13.8 C 88.06 13.16 88.1 12.5 88.06 11.86 S 87.9 10.58 87.6 10.02 C 87.4 9.66 87.16 9.34 86.76 9.12 C 86.64 9.28 86.54 9.4 86.44 9.54 C 86.04 10.12 85.8 10.78 85.64 11.46 C 85.3 12.84 85.26 14.24 85.44 15.64 C 85.52 16.34 85.7 17.04 85.98 17.7 C 86.08 17.92 86.16 18.16 86.4 18.34 C 86.5 18.22 86.6 18.14 86.66 18.02 C 86.86 17.6 87.1 17.16 87.26 16.72 C 87.62 15.78 87.8 14.8 87.96 13.8 Z M 90.08 14.74 C 90.34 13.74 90.42 12.74 90.32 11.72 C 90.24 11 90.1 10.06 89.66 9.46 C 89.6 9.38 89.48 9.24 89.62 9.42 C 89.86 9.78 89.88 10.34 89.96 10.86 C 89.98 11.04 90 11.24 90.02 11.44 C 90.04 11.66 90.06 11.88 90.06 12.08 C 90.1 12.9 90 13.74 89.8 14.54 C 89.7 14.9 90.02 14.96 90.08 14.74 Z M 98.4 18.68 C 98.52 18.76 98.64 18.86 98.62 19.02 C 98.62 19.22 98.46 19.3 98.3 19.34 C 98.14 19.4 97.98 19.42 97.8 19.44 C 97.42 19.5 97.04 19.54 96.66 19.6 C 96.08 19.68 95.5 19.78 94.94 19.9 C 94.38 20 93.84 20.06 93.3 19.94 C 92.98 19.86 92.7 19.78 92.44 19.6 C 92.24 19.46 92.14 19.28 92.12 19.04 C 92.02 16.92 91.86 14.8 91.82 12.68 C 91.78 10.94 91.86 9.2 91.9 7.46 C 91.9 7.24 91.94 7.04 91.96 6.84 C 91.98 6.6 92.12 6.44 92.36 6.38 C 92.96 6.2 93.54 6.24 94.08 6.6 C 94.24 6.7 94.32 6.84 94.34 7.02 C 94.38 7.26 94.4 7.52 94.42 7.78 C 94.46 9.32 94.48 10.86 94.52 12.4 C 94.58 14.24 94.66 16.1 94.72 17.94 C 94.72 18.08 94.74 18.22 94.76 18.44 C 95.12 18.4 95.42 18.38 95.7 18.36 C 96.32 18.3 96.96 18.32 97.58 18.4 C 97.76 18.42 97.92 18.48 98.1 18.52 C 98.2 18.56 98.3 18.62 98.4 18.68 Z M 92.52 9.1 L 92.52 8.5 C 92.52 8.44 92.46 8.38 92.4 8.26 C 92.34 8.4 92.28 8.48 92.28 8.54 C 92.08 11.28 92.04 14 92.38 16.72 C 92.4 15.76 92.44 14.82 92.4 13.88 C 92.36 12.28 92.4 10.68 92.52 9.1 Z M 98.02 18.8 C 98.06 18.86 98 18.76 97.98 18.76 C 97.7 18.54 97.36 18.48 97 18.48 C 96.48 18.46 95.88 18.5 95.38 18.58 C 95.36 18.58 95.24 18.68 95.44 18.66 C 95.84 18.62 96.36 18.56 96.76 18.56 C 97.18 18.56 97.66 18.54 98.02 18.8 Z M 107.46 9.52 C 108.18 11.96 107.74 14.2 106.18 16.22 C 105.24 17.44 104.06 18.42 102.74 19.2 C 102.5 19.36 102.24 19.52 102 19.68 C 101.44 20 100.86 20.08 100.24 19.9 C 100.12 19.88 100 19.82 99.88 19.76 C 99.62 19.6 99.44 19.38 99.44 19.06 C 99.42 18.96 99.42 18.86 99.4 18.78 C 99.3 16.48 99.3 14.18 99.46 11.88 C 99.56 10.4 99.7 8.92 99.84 7.36 C 99.84 7.34 99.82 7.32 99.8 7.28 C 99.54 6.98 99.56 6.92 99.88 6.7 C 100.42 6.34 101 6.24 101.62 6.34 C 101.86 6.38 102.1 6.36 102.34 6.36 C 103.1 6.36 103.84 6.44 104.58 6.66 C 106.02 7.1 107.02 8.02 107.46 9.52 Z M 100.58 9.16 C 100.62 8.82 100.64 8.46 100.66 8.12 C 100.66 8.04 100.6 7.52 100.46 7.84 C 100.4 8 100.42 8.08 100.4 8.2 C 100.34 8.68 100.3 9.16 100.26 9.62 C 100.2 10.26 100.18 10.88 100.12 11.5 C 99.98 13.3 99.92 15.1 99.98 16.9 C 99.98 16.98 99.94 17.08 100.08 17.16 C 100.1 16.96 100.12 16.78 100.12 16.6 C 100.18 15.4 100.22 14.18 100.28 12.96 C 100.32 12.2 100.36 11.46 100.42 10.7 C 100.46 10.18 100.52 9.68 100.58 9.16 Z M 105.3 11.96 C 105.4 10.82 105.16 9.76 104.66 8.76 C 104.32 8.08 103.76 7.64 103.02 7.46 C 102.82 7.42 102.62 7.36 102.42 7.46 C 102.24 10.8 102.14 14.14 102.02 17.46 C 102.18 17.52 102.26 17.4 102.34 17.34 C 102.9 16.88 103.42 16.34 103.88 15.78 C 104.38 15.16 104.72 14.48 104.96 13.74 C 105.14 13.16 105.24 12.56 105.3 11.96 Z M 107.2 12.36 C 107.38 10.84 107.04 8.9 106.04 8.06 C 105.96 7.98 105.9 7.94 105.92 7.96 C 106.02 8.12 106.1 8.28 106.18 8.44 C 106.16 8.42 106.16 8.42 106.14 8.42 L 106.22 8.5 C 106.78 9.64 106.96 10.84 106.88 12.14 C 106.86 12.64 107.2 12.42 107.2 12.36 Z M 111.64 7.2 C 111.62 7.3 111.6 7.36 111.6 7.44 C 111.6 10 111.6 12.54 111.62 15.1 C 111.62 15.14 111.66 15.2 111.68 15.28 C 112 15.26 112.32 15.2 112.64 15.16 S 113.3 15.1 113.64 15.1 C 113.8 15.1 113.98 15.18 114.12 15.26 C 114.32 15.36 114.32 15.58 114.12 15.7 C 113.92 15.8 113.7 15.86 113.48 15.9 C 113.06 16 112.62 16.06 112.2 16.14 C 112.02 16.18 111.86 16.22 111.68 16.28 C 111.66 17 111.7 17.72 111.82 18.42 C 111.84 18.5 111.88 18.58 111.9 18.64 C 111.98 18.88 112.14 19.02 112.4 19.04 C 112.68 19.04 112.96 19.06 113.24 19.04 C 113.76 19 114.26 18.96 114.76 18.92 C 115 18.9 115.22 18.92 115.44 18.94 C 115.54 18.94 115.64 18.98 115.72 19 C 115.94 19.06 116.08 19.22 116.06 19.34 C 116.04 19.5 115.9 19.58 115.76 19.64 C 115.6 19.68 115.42 19.74 115.26 19.76 C 114.48 19.82 113.72 19.9 112.94 19.96 C 112.4 20 111.84 19.96 111.3 19.86 C 111.06 19.82 110.82 19.74 110.6 19.66 C 110.2 19.48 109.9 19.18 109.76 18.78 C 109.66 18.48 109.56 18.16 109.52 17.84 C 109.44 16.86 109.36 15.88 109.3 14.9 C 109.2 13.4 109.24 11.88 109.28 10.36 C 109.3 9.56 109.34 8.74 109.38 7.92 C 109.38 7.72 109.4 7.52 109.4 7.3 C 109.24 7.2 109.1 7.12 108.96 7.02 C 108.84 6.92 108.82 6.72 108.98 6.64 C 109.12 6.54 109.3 6.44 109.48 6.4 C 109.88 6.3 110.3 6.22 110.7 6.18 C 111.96 6.08 113.24 6.04 114.5 6.26 C 114.72 6.3 114.94 6.38 115.12 6.48 C 115.36 6.6 115.34 6.86 115.1 6.96 C 114.92 7.06 114.68 7.14 114.46 7.16 C 114.16 7.2 113.86 7.16 113.56 7.16 L 111.98 7.16 C 111.86 7.16 111.76 7.18 111.64 7.2 Z M 109.78 7.62 C 109.6 8 109.58 8.3 109.52 10.82 C 109.5 11.88 109.5 12.94 109.52 14 C 109.56 15.06 109.62 16.12 109.82 17.16 C 109.84 16.86 109.84 16.56 109.84 16.26 C 109.82 14.84 109.74 13.42 109.76 12.02 C 109.78 10.68 109.86 9.34 109.92 8 C 109.92 7.9 109.92 7.8 109.9 7.72 C 109.9 7.68 109.82 7.66 109.78 7.62 Z M 125.22 6.92 C 125.26 8.26 125.02 9.58 124.86 10.92 C 124.7 12.24 124.5 13.54 124.28 14.84 C 124.1 15.94 123.88 17.04 123.66 18.12 C 123.64 18.3 123.58 18.46 123.54 18.64 C 123.36 19.24 123.1 19.44 122.48 19.48 C 122.32 19.5 122.16 19.5 122.02 19.48 C 121.56 19.44 121.24 19.22 121.08 18.76 C 120.68 17.66 120.28 16.56 119.98 15.42 C 119.84 14.9 119.68 14.4 119.52 13.88 L 119.4 13.88 L 119.4 14.26 C 119.4 15.14 119.42 16 119.4 16.86 C 119.4 17.5 119.34 18.12 119.32 18.76 C 119.3 19.02 119.18 19.18 118.94 19.28 C 118.48 19.44 118.04 19.44 117.58 19.26 C 117.34 19.18 117.22 19.02 117.2 18.76 C 117.16 17.98 117.06 17.22 117.02 16.46 C 116.88 14.56 116.76 12.66 116.8 10.76 C 116.82 9.64 116.92 8.5 116.98 7.36 C 117 7.3 117 7.22 117.02 7.14 C 117.06 6.88 117.2 6.72 117.44 6.64 C 117.88 6.52 118.32 6.52 118.74 6.66 C 118.9 6.72 119.02 6.8 119.16 6.86 C 119.34 6.94 119.42 7.08 119.48 7.24 L 120.32 9.88 C 120.82 11.5 121.32 13.1 121.82 14.72 C 121.84 14.8 121.88 14.88 121.92 14.96 C 122.06 14.98 122.04 14.86 122.04 14.8 C 122.3 12.8 122.56 10.8 122.8 8.8 C 122.84 8.48 122.86 8.16 122.88 7.84 C 122.9 7.48 123 7.16 123.14 6.84 C 123.24 6.66 123.36 6.52 123.56 6.46 C 124.02 6.3 124.5 6.28 124.96 6.48 C 125.2 6.56 125.22 6.66 125.22 6.92 Z M 117.66 9.68 C 117.66 9.22 117.76 8.74 117.66 8.24 C 117.58 8.3 117.52 8.32 117.5 8.36 C 117.46 8.46 117.46 8.54 117.44 8.64 C 117.38 10.02 117.3 11.4 117.26 12.78 C 117.22 14.1 117.34 15.42 117.54 16.74 L 117.54 15.32 C 117.54 14.86 117.52 14.4 117.52 13.94 C 117.52 13.46 117.54 12.98 117.54 12.5 C 117.56 12.02 117.56 11.54 117.58 11.06 C 117.6 10.6 117.66 10.14 117.66 9.68 Z M 121.08 14.18 C 121.2 14.54 121.3 14.28 121.3 14.26 C 121.22 13.98 121.12 13.64 121.02 13.28 L 121.02 13.26 C 121 13.22 120.98 13.2 120.98 13.16 C 120.66 12.08 120.26 10.76 119.98 9.94 C 119.96 9.88 119.92 9.94 119.92 9.96 C 119.98 11.04 120.74 13.06 121.08 14.18 Z M 123.52 8.48 C 123.54 8.38 123.56 8.26 123.4 8.22 C 123.36 8.24 123.32 8.26 123.32 8.28 C 123.14 9.32 122.94 10.36 122.8 11.4 C 122.72 12 122.62 12.6 122.66 13.24 C 122.7 13.18 122.72 13.16 122.74 13.12 C 122.92 12.02 123.12 10.9 123.3 9.8 C 123.38 9.36 123.46 8.92 123.52 8.48 Z&quot;);fill:rgb(17, 17, 17);height:auto;inline-size:auto;overflow-x:visible;overflow-y:visible;perspective-origin:0px 0px;transform-origin:0px 0px;user-select:none;width:auto;"/></g></svg>